G04 #@! TF.FileFunction,Paste,Top*
%FSLAX46Y46*%
G04 Gerber Fmt 4.6, Leading zero omitted, Abs format (unit mm)*
G04 Created by KiCad (PCBNEW 4.0.7) date 02/11/18 15:54:17*
%MOMM*%
%LPD*%
G01*
G04 APERTURE LIST*
%ADD10C,0.100000*%
%ADD11R,0.449200X0.549200*%
%ADD12R,0.280000X0.430000*%
%ADD13R,0.600000X0.500000*%
%ADD14R,1.100000X1.500000*%
%ADD15C,1.200000*%
%ADD16R,1.000000X2.250000*%
%ADD17R,0.350000X0.300000*%
%ADD18R,0.300000X0.350000*%
%ADD19R,0.400000X0.400000*%
%ADD20R,0.800000X0.900000*%
%ADD21R,0.430000X0.280000*%
%ADD22R,1.500000X0.600000*%
%ADD23R,0.750000X1.400000*%
%ADD24R,0.220000X0.760000*%
%ADD25R,0.760000X0.220000*%
%ADD26R,5.600000X5.600000*%
G04 APERTURE END LIST*
D10*
D11*
X49500000Y-102550000D03*
X48500000Y-102550000D03*
X49000000Y-103850000D03*
D12*
X63460000Y-103300000D03*
X62940000Y-103300000D03*
D13*
X62650000Y-102100000D03*
X63750000Y-102100000D03*
D14*
X56380000Y-106790000D03*
X51300000Y-106790000D03*
D15*
X68500000Y-92300000D03*
D16*
X46500000Y-98600000D03*
X46500000Y-95550000D03*
D15*
X53000000Y-95200000D03*
D10*
G36*
X64345736Y-107277818D02*
X63992182Y-106924264D01*
X64416446Y-106500000D01*
X64770000Y-106853554D01*
X64345736Y-107277818D01*
X64345736Y-107277818D01*
G37*
G36*
X65123554Y-106500000D02*
X64770000Y-106146446D01*
X65194264Y-105722182D01*
X65547818Y-106075736D01*
X65123554Y-106500000D01*
X65123554Y-106500000D01*
G37*
D13*
X61050000Y-104900000D03*
X62150000Y-104900000D03*
D17*
X54250000Y-103820000D03*
X54250000Y-104380000D03*
X57600000Y-103895000D03*
X57600000Y-104455000D03*
X53500000Y-100111000D03*
X53500000Y-100671000D03*
X53900000Y-103180000D03*
X53900000Y-102620000D03*
D18*
X52720000Y-101500000D03*
X53280000Y-101500000D03*
D17*
X59000000Y-102320000D03*
X59000000Y-102880000D03*
D18*
X55335500Y-102391000D03*
X54775500Y-102391000D03*
D17*
X57795500Y-93521000D03*
X57795500Y-92961000D03*
D18*
X62720000Y-99300000D03*
X63280000Y-99300000D03*
X62675500Y-97391000D03*
X63235500Y-97391000D03*
X52880000Y-96591000D03*
X52320000Y-96591000D03*
X62475500Y-100600000D03*
X63035500Y-100600000D03*
D17*
X60700000Y-102411000D03*
X60700000Y-102971000D03*
D18*
X69265500Y-94391000D03*
X68705500Y-94391000D03*
X67705500Y-94391000D03*
X67145500Y-94391000D03*
D19*
X69405500Y-97791000D03*
X68605500Y-97791000D03*
X67805500Y-97791000D03*
X67005500Y-97791000D03*
X67005500Y-95391000D03*
X67805500Y-95391000D03*
X68605500Y-95391000D03*
X69405500Y-95391000D03*
D20*
X65750000Y-100591000D03*
X65750000Y-99191000D03*
X64650000Y-99191000D03*
X64650000Y-100591000D03*
D12*
X51060000Y-103300000D03*
X50540000Y-103300000D03*
D21*
X47800000Y-95851000D03*
X47800000Y-95331000D03*
D15*
X63500000Y-94150000D03*
X64825000Y-93275000D03*
X51400000Y-100600000D03*
D22*
X62150000Y-107000000D03*
X58650000Y-107000000D03*
X58650000Y-108600000D03*
X62150000Y-108600000D03*
D23*
X55275000Y-104200000D03*
X56725000Y-104200000D03*
D24*
X55400000Y-101385000D03*
X55800000Y-101385000D03*
X56200000Y-101385000D03*
X56600000Y-101385000D03*
X57000000Y-101385000D03*
X57400000Y-101385000D03*
X57800000Y-101385000D03*
X58200000Y-101385000D03*
X58600000Y-101385000D03*
X59000000Y-101385000D03*
X59400000Y-101385000D03*
X59800000Y-101385000D03*
X60200000Y-101385000D03*
X60600000Y-101385000D03*
D25*
X61385000Y-100600000D03*
X61385000Y-100200000D03*
X61385000Y-99800000D03*
X61385000Y-99400000D03*
X61385000Y-99000000D03*
X61385000Y-98600000D03*
X61385000Y-98200000D03*
X61385000Y-97800000D03*
X61385000Y-97400000D03*
X61385000Y-97000000D03*
X61385000Y-96600000D03*
X61385000Y-96200000D03*
X61385000Y-95800000D03*
X61385000Y-95400000D03*
D24*
X60600000Y-94615000D03*
X60200000Y-94615000D03*
X59800000Y-94615000D03*
X59400000Y-94615000D03*
X59000000Y-94615000D03*
X58600000Y-94615000D03*
X58200000Y-94615000D03*
X57800000Y-94615000D03*
X57400000Y-94615000D03*
X57000000Y-94615000D03*
X56600000Y-94615000D03*
X56200000Y-94615000D03*
X55800000Y-94615000D03*
X55400000Y-94615000D03*
D25*
X54615000Y-95400000D03*
X54615000Y-95800000D03*
X54615000Y-96200000D03*
X54615000Y-96600000D03*
X54615000Y-97000000D03*
X54615000Y-97400000D03*
X54615000Y-97800000D03*
X54615000Y-98200000D03*
X54615000Y-98600000D03*
X54615000Y-99000000D03*
X54615000Y-99400000D03*
X54615000Y-99800000D03*
X54615000Y-100200000D03*
X54615000Y-100600000D03*
D26*
X58000000Y-98000000D03*
M02*
