G04 #@! TF.FileFunction,Copper,L3,Inr,Signal*
%FSLAX46Y46*%
G04 Gerber Fmt 4.6, Leading zero omitted, Abs format (unit mm)*
G04 Created by KiCad (PCBNEW 4.0.7) date 02/11/18 15:54:17*
%MOMM*%
%LPD*%
G01*
G04 APERTURE LIST*
%ADD10C,0.100000*%
%ADD11C,0.454000*%
%ADD12C,4.000000*%
%ADD13C,0.254000*%
G04 APERTURE END LIST*
D10*
D11*
X57975000Y-99850000D03*
X58000000Y-96025000D03*
X59875000Y-98000000D03*
X56100000Y-98000000D03*
D12*
X70200000Y-102100000D03*
X45600000Y-101900000D03*
X45600000Y-92300000D03*
D11*
X67056000Y-102616000D03*
X55372000Y-108750000D03*
X57050000Y-107925000D03*
X57050000Y-108850000D03*
X58750000Y-105750000D03*
X59500000Y-105750000D03*
X60250000Y-105750000D03*
X61000000Y-105750000D03*
X49784000Y-103886000D03*
X68326000Y-103632000D03*
X67818000Y-101092000D03*
X67310000Y-104394000D03*
X68072000Y-100076000D03*
X47498000Y-97028000D03*
X47498000Y-98044000D03*
X62200000Y-104100000D03*
X64770000Y-103632000D03*
X56134000Y-108750000D03*
X57050000Y-108375000D03*
X52000000Y-108204000D03*
X64000000Y-108100000D03*
X64000000Y-107550000D03*
X55372000Y-107696000D03*
X66802000Y-105156000D03*
X68834000Y-99314000D03*
X50038000Y-106680000D03*
X47752000Y-103886000D03*
X48768000Y-105156000D03*
X48006000Y-91440000D03*
X48006000Y-93472000D03*
X69596000Y-92710000D03*
X67818000Y-91440000D03*
X69596000Y-96266000D03*
X49000000Y-89408000D03*
X51000000Y-89408000D03*
X53000000Y-89408000D03*
X55000000Y-89408000D03*
X57000000Y-89408000D03*
X59000000Y-89408000D03*
X61000000Y-89408000D03*
X63000000Y-89408000D03*
X65000000Y-89408000D03*
X67000000Y-89408000D03*
X61750000Y-105750000D03*
X62500000Y-105750000D03*
X64200000Y-96200000D03*
X60100000Y-104800000D03*
X59400000Y-104100000D03*
X61100000Y-104100000D03*
X63300000Y-104500000D03*
X59700000Y-104500000D03*
X65275000Y-107075000D03*
X67056000Y-101854000D03*
X66294000Y-102616000D03*
X67056000Y-103378000D03*
X48514000Y-101854000D03*
X47752000Y-103124000D03*
X49022000Y-101600000D03*
X48260000Y-103378000D03*
X66294000Y-105918000D03*
X65786000Y-105410000D03*
X59944000Y-96012000D03*
X56134000Y-96012000D03*
X56134000Y-99822000D03*
X59944000Y-99822000D03*
X58000000Y-98000000D03*
X63525000Y-96800000D03*
X53900000Y-101400000D03*
X66891000Y-99491000D03*
X63600000Y-101100000D03*
X66891000Y-98900000D03*
X67100000Y-93700000D03*
X53900000Y-101935500D03*
X57575000Y-104950000D03*
X54250000Y-104925000D03*
X52900000Y-100091000D03*
X54775500Y-101811000D03*
X59275000Y-103450000D03*
X60755500Y-103491000D03*
X61355500Y-102891000D03*
X64655500Y-102391000D03*
X64655500Y-101891000D03*
X63546500Y-100600000D03*
X63810000Y-99120000D03*
X69305500Y-98291000D03*
X68655500Y-93691000D03*
X52275500Y-96011000D03*
X58285500Y-92961000D03*
X52540000Y-106790000D03*
X53444500Y-96055500D03*
X52700000Y-100900000D03*
X55400000Y-107100000D03*
X55400000Y-106560000D03*
X54555500Y-103091000D03*
X55223802Y-102959302D03*
X64146500Y-103300000D03*
X68605500Y-98341000D03*
X69255500Y-93700000D03*
X67800000Y-93691000D03*
X62150000Y-97250000D03*
X47525000Y-94800000D03*
X57795500Y-93921000D03*
X58750000Y-103800000D03*
X52400000Y-103700000D03*
X58550000Y-102175000D03*
X62055500Y-101391000D03*
X61655500Y-102000000D03*
X62150000Y-99350000D03*
X52500000Y-105156000D03*
X58450000Y-102775000D03*
X56800000Y-102450000D03*
X50400000Y-99900000D03*
D13*
G36*
X67264096Y-91329319D02*
X67263904Y-91549714D01*
X67348067Y-91753406D01*
X67503774Y-91909385D01*
X67707319Y-91993904D01*
X67927714Y-91994096D01*
X68131406Y-91909933D01*
X68287385Y-91754226D01*
X68371904Y-91550681D01*
X68372096Y-91330286D01*
X68288101Y-91127000D01*
X69100330Y-91127000D01*
X69288092Y-91478640D01*
X69537707Y-92002467D01*
X69601657Y-92156005D01*
X69486286Y-92155904D01*
X69282594Y-92240067D01*
X69126615Y-92395774D01*
X69042096Y-92599319D01*
X69041904Y-92819714D01*
X69126067Y-93023406D01*
X69281774Y-93179385D01*
X69485319Y-93263904D01*
X69705714Y-93264096D01*
X69736246Y-93251481D01*
X69736246Y-95724372D01*
X69706681Y-95712096D01*
X69486286Y-95711904D01*
X69282594Y-95796067D01*
X69126615Y-95951774D01*
X69042096Y-96155319D01*
X69041904Y-96375714D01*
X69126067Y-96579406D01*
X69281774Y-96735385D01*
X69485319Y-96819904D01*
X69705714Y-96820096D01*
X69736246Y-96807481D01*
X69736246Y-97938339D01*
X69619726Y-97821615D01*
X69416181Y-97737096D01*
X69195786Y-97736904D01*
X68992094Y-97821067D01*
X68836115Y-97976774D01*
X68751596Y-98180319D01*
X68751404Y-98400714D01*
X68835567Y-98604406D01*
X68991274Y-98760385D01*
X69194819Y-98844904D01*
X69415214Y-98845096D01*
X69618906Y-98760933D01*
X69736246Y-98643798D01*
X69736246Y-99773802D01*
X68883582Y-100126115D01*
X68258998Y-100749609D01*
X68139657Y-100630059D01*
X68181714Y-100630096D01*
X68385406Y-100545933D01*
X68541385Y-100390226D01*
X68625904Y-100186681D01*
X68626096Y-99966286D01*
X68556892Y-99798798D01*
X68723319Y-99867904D01*
X68943714Y-99868096D01*
X69147406Y-99783933D01*
X69303385Y-99628226D01*
X69387904Y-99424681D01*
X69388096Y-99204286D01*
X69303933Y-99000594D01*
X69148226Y-98844615D01*
X68944681Y-98760096D01*
X68724286Y-98759904D01*
X68520594Y-98844067D01*
X68364615Y-98999774D01*
X68280096Y-99203319D01*
X68279904Y-99423714D01*
X68349108Y-99591202D01*
X68182681Y-99522096D01*
X67962286Y-99521904D01*
X67758594Y-99606067D01*
X67602615Y-99761774D01*
X67518096Y-99965319D01*
X67517904Y-100185714D01*
X67602067Y-100389406D01*
X67750343Y-100537941D01*
X67708286Y-100537904D01*
X67504594Y-100622067D01*
X67348615Y-100777774D01*
X67264096Y-100981319D01*
X67263904Y-101201714D01*
X67348067Y-101405406D01*
X67503774Y-101561385D01*
X67707319Y-101645904D01*
X67873394Y-101646049D01*
X67872597Y-102560838D01*
X68105208Y-103123800D01*
X68012594Y-103162067D01*
X67856615Y-103317774D01*
X67772096Y-103521319D01*
X67771904Y-103741714D01*
X67856067Y-103945406D01*
X68011774Y-104101385D01*
X68201258Y-104180066D01*
X67811120Y-104631800D01*
X67863904Y-104504681D01*
X67864096Y-104284286D01*
X67779933Y-104080594D01*
X67624226Y-103924615D01*
X67420681Y-103840096D01*
X67200286Y-103839904D01*
X66996594Y-103924067D01*
X66840615Y-104079774D01*
X66756096Y-104283319D01*
X66755904Y-104503714D01*
X66796512Y-104601995D01*
X66692286Y-104601904D01*
X66488594Y-104686067D01*
X66332615Y-104841774D01*
X66248096Y-105045319D01*
X66248058Y-105088705D01*
X66100226Y-104940615D01*
X65896681Y-104856096D01*
X65676286Y-104855904D01*
X65531940Y-104915546D01*
X65532170Y-104652515D01*
X65383744Y-104293297D01*
X65138155Y-104047279D01*
X65239385Y-103946226D01*
X65323904Y-103742681D01*
X65324096Y-103522286D01*
X65239933Y-103318594D01*
X65084226Y-103162615D01*
X64880681Y-103078096D01*
X64660286Y-103077904D01*
X64456594Y-103162067D01*
X64300615Y-103317774D01*
X64216096Y-103521319D01*
X64215904Y-103741714D01*
X64282002Y-103901684D01*
X64002297Y-104017256D01*
X63788251Y-104230928D01*
X63769933Y-104186594D01*
X63614226Y-104030615D01*
X63410681Y-103946096D01*
X63190286Y-103945904D01*
X62986594Y-104030067D01*
X62830615Y-104185774D01*
X62746096Y-104389319D01*
X62745904Y-104609714D01*
X62830067Y-104813406D01*
X62985774Y-104969385D01*
X63189319Y-105053904D01*
X63409714Y-105054096D01*
X63577878Y-104984613D01*
X63577830Y-105039485D01*
X63726256Y-105398703D01*
X64000851Y-105673778D01*
X64359810Y-105822830D01*
X64748485Y-105823170D01*
X65107703Y-105674744D01*
X65240986Y-105541694D01*
X65316067Y-105723406D01*
X65471774Y-105879385D01*
X65675319Y-105963904D01*
X65739960Y-105963960D01*
X65739904Y-106027714D01*
X65824067Y-106231406D01*
X65979774Y-106387385D01*
X66183319Y-106471904D01*
X66232855Y-106471947D01*
X66224231Y-106487150D01*
X66190873Y-106537073D01*
X66188153Y-106550748D01*
X66181274Y-106562874D01*
X66173889Y-106622459D01*
X66162176Y-106681345D01*
X66162176Y-106712161D01*
X65864552Y-106965379D01*
X65829072Y-106993396D01*
X65829096Y-106965286D01*
X65744933Y-106761594D01*
X65589226Y-106605615D01*
X65385681Y-106521096D01*
X65165286Y-106520904D01*
X64961594Y-106605067D01*
X64805615Y-106760774D01*
X64721096Y-106964319D01*
X64720904Y-107184714D01*
X64805067Y-107388406D01*
X64960774Y-107544385D01*
X65053445Y-107582865D01*
X64976140Y-107639147D01*
X64531428Y-107935425D01*
X64485738Y-107824844D01*
X64553904Y-107660681D01*
X64554096Y-107440286D01*
X64469933Y-107236594D01*
X64314226Y-107080615D01*
X64110681Y-106996096D01*
X63890286Y-106995904D01*
X63757000Y-107050976D01*
X63757000Y-106190000D01*
X63748242Y-106143655D01*
X63720895Y-106101304D01*
X63679226Y-106072928D01*
X63629801Y-106063000D01*
X62969464Y-106064037D01*
X63053904Y-105860681D01*
X63054096Y-105640286D01*
X62969933Y-105436594D01*
X62814226Y-105280615D01*
X62610681Y-105196096D01*
X62390286Y-105195904D01*
X62186594Y-105280067D01*
X62125029Y-105341524D01*
X62064226Y-105280615D01*
X61860681Y-105196096D01*
X61640286Y-105195904D01*
X61436594Y-105280067D01*
X61375029Y-105341524D01*
X61314226Y-105280615D01*
X61110681Y-105196096D01*
X60890286Y-105195904D01*
X60686594Y-105280067D01*
X60625029Y-105341524D01*
X60564226Y-105280615D01*
X60450155Y-105233249D01*
X60569385Y-105114226D01*
X60653904Y-104910681D01*
X60654096Y-104690286D01*
X60569933Y-104486594D01*
X60414226Y-104330615D01*
X60210681Y-104246096D01*
X60194513Y-104246082D01*
X60169933Y-104186594D01*
X60014226Y-104030615D01*
X59954083Y-104005641D01*
X59954096Y-103990286D01*
X59869933Y-103786594D01*
X59774707Y-103691202D01*
X59812280Y-103600714D01*
X60201404Y-103600714D01*
X60285567Y-103804406D01*
X60441274Y-103960385D01*
X60546083Y-104003905D01*
X60545904Y-104209714D01*
X60630067Y-104413406D01*
X60785774Y-104569385D01*
X60989319Y-104653904D01*
X61209714Y-104654096D01*
X61413406Y-104569933D01*
X61569385Y-104414226D01*
X61650094Y-104219856D01*
X61730067Y-104413406D01*
X61885774Y-104569385D01*
X62089319Y-104653904D01*
X62309714Y-104654096D01*
X62513406Y-104569933D01*
X62669385Y-104414226D01*
X62753904Y-104210681D01*
X62754096Y-103990286D01*
X62669933Y-103786594D01*
X62514226Y-103630615D01*
X62310681Y-103546096D01*
X62090286Y-103545904D01*
X61886594Y-103630067D01*
X61730615Y-103785774D01*
X61649906Y-103980144D01*
X61569933Y-103786594D01*
X61414226Y-103630615D01*
X61309417Y-103587095D01*
X61309541Y-103444960D01*
X61465214Y-103445096D01*
X61668906Y-103360933D01*
X61824885Y-103205226D01*
X61909404Y-103001681D01*
X61909596Y-102781286D01*
X61825433Y-102577594D01*
X61791241Y-102543342D01*
X61968906Y-102469933D01*
X62124885Y-102314226D01*
X62209404Y-102110681D01*
X62209499Y-102000714D01*
X64101404Y-102000714D01*
X64159407Y-102141094D01*
X64101596Y-102280319D01*
X64101404Y-102500714D01*
X64185567Y-102704406D01*
X64341274Y-102860385D01*
X64544819Y-102944904D01*
X64765214Y-102945096D01*
X64968906Y-102860933D01*
X65124885Y-102705226D01*
X65209404Y-102501681D01*
X65209596Y-102281286D01*
X65151593Y-102140906D01*
X65209404Y-102001681D01*
X65209596Y-101781286D01*
X65125433Y-101577594D01*
X64969726Y-101421615D01*
X64766181Y-101337096D01*
X64545786Y-101336904D01*
X64342094Y-101421067D01*
X64186115Y-101576774D01*
X64101596Y-101780319D01*
X64101404Y-102000714D01*
X62209499Y-102000714D01*
X62209564Y-101926771D01*
X62368906Y-101860933D01*
X62524885Y-101705226D01*
X62609404Y-101501681D01*
X62609596Y-101281286D01*
X62525433Y-101077594D01*
X62369726Y-100921615D01*
X62166181Y-100837096D01*
X61945786Y-100836904D01*
X61742094Y-100921067D01*
X61586115Y-101076774D01*
X61501596Y-101280319D01*
X61501436Y-101464229D01*
X61342094Y-101530067D01*
X61186115Y-101685774D01*
X61101596Y-101889319D01*
X61101404Y-102109714D01*
X61185567Y-102313406D01*
X61219759Y-102347658D01*
X61042094Y-102421067D01*
X60886115Y-102576774D01*
X60801596Y-102780319D01*
X60801459Y-102937040D01*
X60645786Y-102936904D01*
X60442094Y-103021067D01*
X60286115Y-103176774D01*
X60201596Y-103380319D01*
X60201404Y-103600714D01*
X59812280Y-103600714D01*
X59828904Y-103560681D01*
X59829096Y-103340286D01*
X59744933Y-103136594D01*
X59589226Y-102980615D01*
X59385681Y-102896096D01*
X59165286Y-102895904D01*
X58965357Y-102978512D01*
X59003904Y-102885681D01*
X59004096Y-102665286D01*
X58957058Y-102551444D01*
X59019385Y-102489226D01*
X59103904Y-102285681D01*
X59104096Y-102065286D01*
X59019933Y-101861594D01*
X58864226Y-101705615D01*
X58660681Y-101621096D01*
X58440286Y-101620904D01*
X58236594Y-101705067D01*
X58080615Y-101860774D01*
X57996096Y-102064319D01*
X57995904Y-102284714D01*
X58042942Y-102398556D01*
X57980615Y-102460774D01*
X57896096Y-102664319D01*
X57895904Y-102884714D01*
X57980067Y-103088406D01*
X58135774Y-103244385D01*
X58339319Y-103328904D01*
X58439198Y-103328991D01*
X58436594Y-103330067D01*
X58280615Y-103485774D01*
X58196096Y-103689319D01*
X58195904Y-103909714D01*
X58280067Y-104113406D01*
X58435774Y-104269385D01*
X58639319Y-104353904D01*
X58859714Y-104354096D01*
X58898875Y-104337915D01*
X58930067Y-104413406D01*
X59085774Y-104569385D01*
X59145917Y-104594359D01*
X59145904Y-104609714D01*
X59230067Y-104813406D01*
X59385774Y-104969385D01*
X59589319Y-105053904D01*
X59605487Y-105053918D01*
X59630067Y-105113406D01*
X59784778Y-105268387D01*
X59610681Y-105196096D01*
X59390286Y-105195904D01*
X59186594Y-105280067D01*
X59125029Y-105341524D01*
X59064226Y-105280615D01*
X58860681Y-105196096D01*
X58640286Y-105195904D01*
X58436594Y-105280067D01*
X58280615Y-105435774D01*
X58196096Y-105639319D01*
X58195904Y-105859714D01*
X58280067Y-106063406D01*
X58288033Y-106071386D01*
X57259801Y-106073000D01*
X57213841Y-106081685D01*
X57171447Y-106108965D01*
X57143006Y-106150590D01*
X57133000Y-106200000D01*
X57133000Y-107371072D01*
X56940286Y-107370904D01*
X56736594Y-107455067D01*
X56580615Y-107610774D01*
X56496096Y-107814319D01*
X56495904Y-108034714D01*
X56543552Y-108150032D01*
X56496096Y-108264319D01*
X56496040Y-108328513D01*
X56448226Y-108280615D01*
X56244681Y-108196096D01*
X56024286Y-108195904D01*
X55820594Y-108280067D01*
X55753019Y-108347524D01*
X55686226Y-108280615D01*
X55547383Y-108222962D01*
X55685406Y-108165933D01*
X55841385Y-108010226D01*
X55925904Y-107806681D01*
X55926096Y-107586286D01*
X55841933Y-107382594D01*
X55686226Y-107226615D01*
X55482681Y-107142096D01*
X55262286Y-107141904D01*
X55058594Y-107226067D01*
X54902615Y-107381774D01*
X54818096Y-107585319D01*
X54817904Y-107805714D01*
X54902067Y-108009406D01*
X55057774Y-108165385D01*
X55196617Y-108223038D01*
X55058594Y-108280067D01*
X54902615Y-108435774D01*
X54818096Y-108639319D01*
X54817904Y-108859714D01*
X54849361Y-108935847D01*
X53211237Y-108935847D01*
X52747309Y-108740970D01*
X52407712Y-108579792D01*
X52469385Y-108518226D01*
X52553904Y-108314681D01*
X52554096Y-108094286D01*
X52469933Y-107890594D01*
X52314226Y-107734615D01*
X52110681Y-107650096D01*
X51890286Y-107649904D01*
X51686594Y-107734067D01*
X51530615Y-107889774D01*
X51456585Y-108068058D01*
X51248356Y-107945197D01*
X50776701Y-107637847D01*
X50319918Y-107310587D01*
X50196694Y-107213858D01*
X50351406Y-107149933D01*
X50507385Y-106994226D01*
X50546629Y-106899714D01*
X51985904Y-106899714D01*
X52070067Y-107103406D01*
X52225774Y-107259385D01*
X52429319Y-107343904D01*
X52649714Y-107344096D01*
X52853406Y-107259933D01*
X53009385Y-107104226D01*
X53093904Y-106900681D01*
X53094096Y-106680286D01*
X53009933Y-106476594D01*
X52854226Y-106320615D01*
X52650681Y-106236096D01*
X52430286Y-106235904D01*
X52226594Y-106320067D01*
X52070615Y-106475774D01*
X51986096Y-106679319D01*
X51985904Y-106899714D01*
X50546629Y-106899714D01*
X50591904Y-106790681D01*
X50592096Y-106570286D01*
X50507933Y-106366594D01*
X50352226Y-106210615D01*
X50148681Y-106126096D01*
X49928286Y-106125904D01*
X49724594Y-106210067D01*
X49568615Y-106365774D01*
X49551592Y-106406769D01*
X49549552Y-106396512D01*
X49516207Y-106346608D01*
X49486601Y-106294404D01*
X48954649Y-105678308D01*
X49081406Y-105625933D01*
X49237385Y-105470226D01*
X49321904Y-105266681D01*
X49322096Y-105046286D01*
X49237933Y-104842594D01*
X49082226Y-104686615D01*
X48878681Y-104602096D01*
X48658286Y-104601904D01*
X48454594Y-104686067D01*
X48298615Y-104841774D01*
X48277101Y-104893585D01*
X47879281Y-104432838D01*
X48065406Y-104355933D01*
X48221385Y-104200226D01*
X48305904Y-103996681D01*
X48305904Y-103995714D01*
X49229904Y-103995714D01*
X49314067Y-104199406D01*
X49469774Y-104355385D01*
X49673319Y-104439904D01*
X49864676Y-104440071D01*
X49777170Y-104650810D01*
X49776830Y-105039485D01*
X49925256Y-105398703D01*
X50199851Y-105673778D01*
X50558810Y-105822830D01*
X50947485Y-105823170D01*
X51306703Y-105674744D01*
X51581778Y-105400149D01*
X51637599Y-105265714D01*
X51945904Y-105265714D01*
X52030067Y-105469406D01*
X52185774Y-105625385D01*
X52389319Y-105709904D01*
X52609714Y-105710096D01*
X52813406Y-105625933D01*
X52969385Y-105470226D01*
X53053904Y-105266681D01*
X53054096Y-105046286D01*
X53049315Y-105034714D01*
X53695904Y-105034714D01*
X53780067Y-105238406D01*
X53935774Y-105394385D01*
X54139319Y-105478904D01*
X54359714Y-105479096D01*
X54563406Y-105394933D01*
X54719385Y-105239226D01*
X54793924Y-105059714D01*
X57020904Y-105059714D01*
X57105067Y-105263406D01*
X57260774Y-105419385D01*
X57464319Y-105503904D01*
X57684714Y-105504096D01*
X57888406Y-105419933D01*
X58044385Y-105264226D01*
X58128904Y-105060681D01*
X58129096Y-104840286D01*
X58044933Y-104636594D01*
X57889226Y-104480615D01*
X57685681Y-104396096D01*
X57465286Y-104395904D01*
X57261594Y-104480067D01*
X57105615Y-104635774D01*
X57021096Y-104839319D01*
X57020904Y-105059714D01*
X54793924Y-105059714D01*
X54803904Y-105035681D01*
X54804096Y-104815286D01*
X54719933Y-104611594D01*
X54564226Y-104455615D01*
X54360681Y-104371096D01*
X54140286Y-104370904D01*
X53936594Y-104455067D01*
X53780615Y-104610774D01*
X53696096Y-104814319D01*
X53695904Y-105034714D01*
X53049315Y-105034714D01*
X52969933Y-104842594D01*
X52814226Y-104686615D01*
X52610681Y-104602096D01*
X52390286Y-104601904D01*
X52186594Y-104686067D01*
X52030615Y-104841774D01*
X51946096Y-105045319D01*
X51945904Y-105265714D01*
X51637599Y-105265714D01*
X51730830Y-105041190D01*
X51731170Y-104652515D01*
X51582744Y-104293297D01*
X51308149Y-104018222D01*
X50949190Y-103869170D01*
X50560515Y-103868830D01*
X50337935Y-103960798D01*
X50338066Y-103809714D01*
X51845904Y-103809714D01*
X51930067Y-104013406D01*
X52085774Y-104169385D01*
X52289319Y-104253904D01*
X52509714Y-104254096D01*
X52713406Y-104169933D01*
X52869385Y-104014226D01*
X52953904Y-103810681D01*
X52954096Y-103590286D01*
X52869933Y-103386594D01*
X52714226Y-103230615D01*
X52510681Y-103146096D01*
X52290286Y-103145904D01*
X52086594Y-103230067D01*
X51930615Y-103385774D01*
X51846096Y-103589319D01*
X51845904Y-103809714D01*
X50338066Y-103809714D01*
X50338096Y-103776286D01*
X50253933Y-103572594D01*
X50098226Y-103416615D01*
X49894681Y-103332096D01*
X49674286Y-103331904D01*
X49470594Y-103416067D01*
X49314615Y-103571774D01*
X49230096Y-103775319D01*
X49229904Y-103995714D01*
X48305904Y-103995714D01*
X48306096Y-103776286D01*
X48221933Y-103572594D01*
X48066226Y-103416615D01*
X47862681Y-103332096D01*
X47642286Y-103331904D01*
X47438594Y-103416067D01*
X47282615Y-103571774D01*
X47221042Y-103720060D01*
X47214009Y-103718117D01*
X47202398Y-103710359D01*
X47143534Y-103698650D01*
X47103137Y-103687492D01*
X47571585Y-103219861D01*
X47845702Y-102559714D01*
X56245904Y-102559714D01*
X56330067Y-102763406D01*
X56485774Y-102919385D01*
X56689319Y-103003904D01*
X56909714Y-103004096D01*
X57113406Y-102919933D01*
X57269385Y-102764226D01*
X57353904Y-102560681D01*
X57354096Y-102340286D01*
X57269933Y-102136594D01*
X57114226Y-101980615D01*
X56910681Y-101896096D01*
X56690286Y-101895904D01*
X56486594Y-101980067D01*
X56330615Y-102135774D01*
X56246096Y-102339319D01*
X56245904Y-102559714D01*
X47845702Y-102559714D01*
X47926596Y-102364900D01*
X47927341Y-101509714D01*
X53345904Y-101509714D01*
X53411259Y-101667888D01*
X53346096Y-101824819D01*
X53345904Y-102045214D01*
X53430067Y-102248906D01*
X53585774Y-102404885D01*
X53789319Y-102489404D01*
X54009714Y-102489596D01*
X54213406Y-102405433D01*
X54369385Y-102249726D01*
X54387388Y-102206370D01*
X54461274Y-102280385D01*
X54664819Y-102364904D01*
X54885214Y-102365096D01*
X55088906Y-102280933D01*
X55244885Y-102125226D01*
X55329404Y-101921681D01*
X55329596Y-101701286D01*
X55245433Y-101497594D01*
X55089726Y-101341615D01*
X54886181Y-101257096D01*
X54665786Y-101256904D01*
X54462094Y-101341067D01*
X54454045Y-101349102D01*
X54454096Y-101290286D01*
X54369933Y-101086594D01*
X54214226Y-100930615D01*
X54010681Y-100846096D01*
X53790286Y-100845904D01*
X53586594Y-100930067D01*
X53430615Y-101085774D01*
X53346096Y-101289319D01*
X53345904Y-101509714D01*
X47927341Y-101509714D01*
X47927403Y-101439162D01*
X47626002Y-100709714D01*
X62992404Y-100709714D01*
X63076567Y-100913406D01*
X63077309Y-100914149D01*
X63046096Y-100989319D01*
X63045904Y-101209714D01*
X63130067Y-101413406D01*
X63285774Y-101569385D01*
X63489319Y-101653904D01*
X63709714Y-101654096D01*
X63913406Y-101569933D01*
X64069385Y-101414226D01*
X64153904Y-101210681D01*
X64154096Y-100990286D01*
X64069933Y-100786594D01*
X64069191Y-100785851D01*
X64100404Y-100710681D01*
X64100596Y-100490286D01*
X64016433Y-100286594D01*
X63860726Y-100130615D01*
X63657181Y-100046096D01*
X63436786Y-100045904D01*
X63233094Y-100130067D01*
X63077115Y-100285774D01*
X62992596Y-100489319D01*
X62992404Y-100709714D01*
X47626002Y-100709714D01*
X47573885Y-100583582D01*
X47001019Y-100009714D01*
X49845904Y-100009714D01*
X49930067Y-100213406D01*
X50085774Y-100369385D01*
X50289319Y-100453904D01*
X50509714Y-100454096D01*
X50713406Y-100369933D01*
X50869385Y-100214226D01*
X50874995Y-100200714D01*
X52345904Y-100200714D01*
X52430067Y-100404406D01*
X52585774Y-100560385D01*
X52789319Y-100644904D01*
X53009714Y-100645096D01*
X53213406Y-100560933D01*
X53369385Y-100405226D01*
X53453904Y-100201681D01*
X53454096Y-99981286D01*
X53433614Y-99931714D01*
X55579904Y-99931714D01*
X55664067Y-100135406D01*
X55819774Y-100291385D01*
X56023319Y-100375904D01*
X56243714Y-100376096D01*
X56447406Y-100291933D01*
X56603385Y-100136226D01*
X56676678Y-99959714D01*
X57420904Y-99959714D01*
X57505067Y-100163406D01*
X57660774Y-100319385D01*
X57864319Y-100403904D01*
X58084714Y-100404096D01*
X58288406Y-100319933D01*
X58444385Y-100164226D01*
X58528904Y-99960681D01*
X58528929Y-99931714D01*
X59389904Y-99931714D01*
X59474067Y-100135406D01*
X59629774Y-100291385D01*
X59833319Y-100375904D01*
X60053714Y-100376096D01*
X60257406Y-100291933D01*
X60413385Y-100136226D01*
X60497904Y-99932681D01*
X60498096Y-99712286D01*
X60413933Y-99508594D01*
X60365139Y-99459714D01*
X61595904Y-99459714D01*
X61680067Y-99663406D01*
X61835774Y-99819385D01*
X62039319Y-99903904D01*
X62259714Y-99904096D01*
X62463406Y-99819933D01*
X62619385Y-99664226D01*
X62703904Y-99460681D01*
X62704096Y-99240286D01*
X62699728Y-99229714D01*
X63255904Y-99229714D01*
X63340067Y-99433406D01*
X63495774Y-99589385D01*
X63699319Y-99673904D01*
X63919714Y-99674096D01*
X64123406Y-99589933D01*
X64279385Y-99434226D01*
X64363904Y-99230681D01*
X64364096Y-99010286D01*
X64363860Y-99009714D01*
X66336904Y-99009714D01*
X66413754Y-99195706D01*
X66337096Y-99380319D01*
X66336904Y-99600714D01*
X66421067Y-99804406D01*
X66576774Y-99960385D01*
X66780319Y-100044904D01*
X67000714Y-100045096D01*
X67204406Y-99960933D01*
X67360385Y-99805226D01*
X67444904Y-99601681D01*
X67445096Y-99381286D01*
X67368246Y-99195294D01*
X67444904Y-99010681D01*
X67445096Y-98790286D01*
X67360933Y-98586594D01*
X67205226Y-98430615D01*
X67001681Y-98346096D01*
X66781286Y-98345904D01*
X66577594Y-98430067D01*
X66421615Y-98585774D01*
X66337096Y-98789319D01*
X66336904Y-99009714D01*
X64363860Y-99009714D01*
X64279933Y-98806594D01*
X64124226Y-98650615D01*
X63920681Y-98566096D01*
X63700286Y-98565904D01*
X63496594Y-98650067D01*
X63340615Y-98805774D01*
X63256096Y-99009319D01*
X63255904Y-99229714D01*
X62699728Y-99229714D01*
X62619933Y-99036594D01*
X62464226Y-98880615D01*
X62260681Y-98796096D01*
X62040286Y-98795904D01*
X61836594Y-98880067D01*
X61680615Y-99035774D01*
X61596096Y-99239319D01*
X61595904Y-99459714D01*
X60365139Y-99459714D01*
X60258226Y-99352615D01*
X60054681Y-99268096D01*
X59834286Y-99267904D01*
X59630594Y-99352067D01*
X59474615Y-99507774D01*
X59390096Y-99711319D01*
X59389904Y-99931714D01*
X58528929Y-99931714D01*
X58529096Y-99740286D01*
X58444933Y-99536594D01*
X58289226Y-99380615D01*
X58085681Y-99296096D01*
X57865286Y-99295904D01*
X57661594Y-99380067D01*
X57505615Y-99535774D01*
X57421096Y-99739319D01*
X57420904Y-99959714D01*
X56676678Y-99959714D01*
X56687904Y-99932681D01*
X56688096Y-99712286D01*
X56603933Y-99508594D01*
X56448226Y-99352615D01*
X56244681Y-99268096D01*
X56024286Y-99267904D01*
X55820594Y-99352067D01*
X55664615Y-99507774D01*
X55580096Y-99711319D01*
X55579904Y-99931714D01*
X53433614Y-99931714D01*
X53369933Y-99777594D01*
X53214226Y-99621615D01*
X53010681Y-99537096D01*
X52790286Y-99536904D01*
X52586594Y-99621067D01*
X52430615Y-99776774D01*
X52346096Y-99980319D01*
X52345904Y-100200714D01*
X50874995Y-100200714D01*
X50953904Y-100010681D01*
X50954096Y-99790286D01*
X50869933Y-99586594D01*
X50714226Y-99430615D01*
X50510681Y-99346096D01*
X50290286Y-99345904D01*
X50086594Y-99430067D01*
X49930615Y-99585774D01*
X49846096Y-99789319D01*
X49845904Y-100009714D01*
X47001019Y-100009714D01*
X46919861Y-99928415D01*
X46090182Y-99583902D01*
X46090182Y-97137714D01*
X46943904Y-97137714D01*
X47028067Y-97341406D01*
X47183774Y-97497385D01*
X47276747Y-97535991D01*
X47184594Y-97574067D01*
X47028615Y-97729774D01*
X46944096Y-97933319D01*
X46943904Y-98153714D01*
X47028067Y-98357406D01*
X47183774Y-98513385D01*
X47387319Y-98597904D01*
X47607714Y-98598096D01*
X47811406Y-98513933D01*
X47967385Y-98358226D01*
X48051904Y-98154681D01*
X48051943Y-98109714D01*
X55545904Y-98109714D01*
X55630067Y-98313406D01*
X55785774Y-98469385D01*
X55989319Y-98553904D01*
X56209714Y-98554096D01*
X56413406Y-98469933D01*
X56569385Y-98314226D01*
X56653904Y-98110681D01*
X56653904Y-98109714D01*
X57445904Y-98109714D01*
X57530067Y-98313406D01*
X57685774Y-98469385D01*
X57889319Y-98553904D01*
X58109714Y-98554096D01*
X58313406Y-98469933D01*
X58469385Y-98314226D01*
X58553904Y-98110681D01*
X58553904Y-98109714D01*
X59320904Y-98109714D01*
X59405067Y-98313406D01*
X59560774Y-98469385D01*
X59764319Y-98553904D01*
X59984714Y-98554096D01*
X60188406Y-98469933D01*
X60344385Y-98314226D01*
X60428904Y-98110681D01*
X60429096Y-97890286D01*
X60344933Y-97686594D01*
X60189226Y-97530615D01*
X59985681Y-97446096D01*
X59765286Y-97445904D01*
X59561594Y-97530067D01*
X59405615Y-97685774D01*
X59321096Y-97889319D01*
X59320904Y-98109714D01*
X58553904Y-98109714D01*
X58554096Y-97890286D01*
X58469933Y-97686594D01*
X58314226Y-97530615D01*
X58110681Y-97446096D01*
X57890286Y-97445904D01*
X57686594Y-97530067D01*
X57530615Y-97685774D01*
X57446096Y-97889319D01*
X57445904Y-98109714D01*
X56653904Y-98109714D01*
X56654096Y-97890286D01*
X56569933Y-97686594D01*
X56414226Y-97530615D01*
X56210681Y-97446096D01*
X55990286Y-97445904D01*
X55786594Y-97530067D01*
X55630615Y-97685774D01*
X55546096Y-97889319D01*
X55545904Y-98109714D01*
X48051943Y-98109714D01*
X48052096Y-97934286D01*
X47967933Y-97730594D01*
X47812226Y-97574615D01*
X47719253Y-97536009D01*
X47811406Y-97497933D01*
X47967385Y-97342226D01*
X48051904Y-97138681D01*
X48052096Y-96918286D01*
X48048555Y-96909714D01*
X62970904Y-96909714D01*
X63055067Y-97113406D01*
X63210774Y-97269385D01*
X63414319Y-97353904D01*
X63634714Y-97354096D01*
X63838406Y-97269933D01*
X63994385Y-97114226D01*
X64078904Y-96910681D01*
X64079044Y-96749638D01*
X64089319Y-96753904D01*
X64309714Y-96754096D01*
X64513406Y-96669933D01*
X64669385Y-96514226D01*
X64753904Y-96310681D01*
X64754096Y-96090286D01*
X64669933Y-95886594D01*
X64603137Y-95819681D01*
X64904849Y-95819681D01*
X65038082Y-96142131D01*
X65284571Y-96389051D01*
X65606789Y-96522847D01*
X65955681Y-96523151D01*
X66278131Y-96389918D01*
X66525051Y-96143429D01*
X66658847Y-95821211D01*
X66659151Y-95472319D01*
X66525918Y-95149869D01*
X66279429Y-94902949D01*
X65957211Y-94769153D01*
X65608319Y-94768849D01*
X65285869Y-94902082D01*
X65038949Y-95148571D01*
X64905153Y-95470789D01*
X64904849Y-95819681D01*
X64603137Y-95819681D01*
X64514226Y-95730615D01*
X64310681Y-95646096D01*
X64090286Y-95645904D01*
X63886594Y-95730067D01*
X63730615Y-95885774D01*
X63646096Y-96089319D01*
X63645956Y-96250362D01*
X63635681Y-96246096D01*
X63415286Y-96245904D01*
X63211594Y-96330067D01*
X63055615Y-96485774D01*
X62971096Y-96689319D01*
X62970904Y-96909714D01*
X48048555Y-96909714D01*
X47967933Y-96714594D01*
X47812226Y-96558615D01*
X47608681Y-96474096D01*
X47388286Y-96473904D01*
X47184594Y-96558067D01*
X47028615Y-96713774D01*
X46944096Y-96917319D01*
X46943904Y-97137714D01*
X46090182Y-97137714D01*
X46090182Y-96103681D01*
X49132849Y-96103681D01*
X49266082Y-96426131D01*
X49512571Y-96673051D01*
X49834789Y-96806847D01*
X50183681Y-96807151D01*
X50506131Y-96673918D01*
X50753051Y-96427429D01*
X50880409Y-96120714D01*
X51721404Y-96120714D01*
X51805567Y-96324406D01*
X51961274Y-96480385D01*
X52164819Y-96564904D01*
X52385214Y-96565096D01*
X52588906Y-96480933D01*
X52744885Y-96325226D01*
X52829390Y-96121714D01*
X55579904Y-96121714D01*
X55664067Y-96325406D01*
X55819774Y-96481385D01*
X56023319Y-96565904D01*
X56243714Y-96566096D01*
X56447406Y-96481933D01*
X56603385Y-96326226D01*
X56682907Y-96134714D01*
X57445904Y-96134714D01*
X57530067Y-96338406D01*
X57685774Y-96494385D01*
X57889319Y-96578904D01*
X58109714Y-96579096D01*
X58313406Y-96494933D01*
X58469385Y-96339226D01*
X58553904Y-96135681D01*
X58553916Y-96121714D01*
X59389904Y-96121714D01*
X59474067Y-96325406D01*
X59629774Y-96481385D01*
X59833319Y-96565904D01*
X60053714Y-96566096D01*
X60257406Y-96481933D01*
X60413385Y-96326226D01*
X60497904Y-96122681D01*
X60498096Y-95902286D01*
X60413933Y-95698594D01*
X60258226Y-95542615D01*
X60054681Y-95458096D01*
X59834286Y-95457904D01*
X59630594Y-95542067D01*
X59474615Y-95697774D01*
X59390096Y-95901319D01*
X59389904Y-96121714D01*
X58553916Y-96121714D01*
X58554096Y-95915286D01*
X58469933Y-95711594D01*
X58314226Y-95555615D01*
X58110681Y-95471096D01*
X57890286Y-95470904D01*
X57686594Y-95555067D01*
X57530615Y-95710774D01*
X57446096Y-95914319D01*
X57445904Y-96134714D01*
X56682907Y-96134714D01*
X56687904Y-96122681D01*
X56688096Y-95902286D01*
X56603933Y-95698594D01*
X56448226Y-95542615D01*
X56244681Y-95458096D01*
X56024286Y-95457904D01*
X55820594Y-95542067D01*
X55664615Y-95697774D01*
X55580096Y-95901319D01*
X55579904Y-96121714D01*
X52829390Y-96121714D01*
X52829404Y-96121681D01*
X52829596Y-95901286D01*
X52745433Y-95697594D01*
X52589726Y-95541615D01*
X52386181Y-95457096D01*
X52165786Y-95456904D01*
X51962094Y-95541067D01*
X51806115Y-95696774D01*
X51721596Y-95900319D01*
X51721404Y-96120714D01*
X50880409Y-96120714D01*
X50886847Y-96105211D01*
X50887151Y-95756319D01*
X50753918Y-95433869D01*
X50507429Y-95186949D01*
X50185211Y-95053153D01*
X49836319Y-95052849D01*
X49513869Y-95186082D01*
X49266949Y-95432571D01*
X49133153Y-95754789D01*
X49132849Y-96103681D01*
X46090182Y-96103681D01*
X46090182Y-94615278D01*
X46916418Y-94273885D01*
X47498012Y-93693305D01*
X47536067Y-93785406D01*
X47691774Y-93941385D01*
X47895319Y-94025904D01*
X48115714Y-94026096D01*
X48319406Y-93941933D01*
X48451855Y-93809714D01*
X66545904Y-93809714D01*
X66630067Y-94013406D01*
X66785774Y-94169385D01*
X66989319Y-94253904D01*
X67209714Y-94254096D01*
X67413406Y-94169933D01*
X67569385Y-94014226D01*
X67653904Y-93810681D01*
X67653912Y-93800714D01*
X68101404Y-93800714D01*
X68185567Y-94004406D01*
X68341274Y-94160385D01*
X68544819Y-94244904D01*
X68765214Y-94245096D01*
X68968906Y-94160933D01*
X69124885Y-94005226D01*
X69209404Y-93801681D01*
X69209596Y-93581286D01*
X69125433Y-93377594D01*
X68969726Y-93221615D01*
X68766181Y-93137096D01*
X68545786Y-93136904D01*
X68342094Y-93221067D01*
X68186115Y-93376774D01*
X68101596Y-93580319D01*
X68101404Y-93800714D01*
X67653912Y-93800714D01*
X67654096Y-93590286D01*
X67569933Y-93386594D01*
X67414226Y-93230615D01*
X67210681Y-93146096D01*
X66990286Y-93145904D01*
X66786594Y-93230067D01*
X66630615Y-93385774D01*
X66546096Y-93589319D01*
X66545904Y-93809714D01*
X48451855Y-93809714D01*
X48475385Y-93786226D01*
X48559904Y-93582681D01*
X48560096Y-93362286D01*
X48475933Y-93158594D01*
X48388207Y-93070714D01*
X57731404Y-93070714D01*
X57815567Y-93274406D01*
X57971274Y-93430385D01*
X58174819Y-93514904D01*
X58395214Y-93515096D01*
X58598906Y-93430933D01*
X58754885Y-93275226D01*
X58839404Y-93071681D01*
X58839596Y-92851286D01*
X58755433Y-92647594D01*
X58599726Y-92491615D01*
X58396181Y-92407096D01*
X58175786Y-92406904D01*
X57972094Y-92491067D01*
X57816115Y-92646774D01*
X57731596Y-92850319D01*
X57731404Y-93070714D01*
X48388207Y-93070714D01*
X48320226Y-93002615D01*
X48116681Y-92918096D01*
X47896286Y-92917904D01*
X47856183Y-92934474D01*
X47926596Y-92764900D01*
X47927268Y-91993932D01*
X48115714Y-91994096D01*
X48319406Y-91909933D01*
X48475385Y-91754226D01*
X48559904Y-91550681D01*
X48560096Y-91330286D01*
X48476101Y-91127000D01*
X67348106Y-91127000D01*
X67264096Y-91329319D01*
X67264096Y-91329319D01*
G37*
X67264096Y-91329319D02*
X67263904Y-91549714D01*
X67348067Y-91753406D01*
X67503774Y-91909385D01*
X67707319Y-91993904D01*
X67927714Y-91994096D01*
X68131406Y-91909933D01*
X68287385Y-91754226D01*
X68371904Y-91550681D01*
X68372096Y-91330286D01*
X68288101Y-91127000D01*
X69100330Y-91127000D01*
X69288092Y-91478640D01*
X69537707Y-92002467D01*
X69601657Y-92156005D01*
X69486286Y-92155904D01*
X69282594Y-92240067D01*
X69126615Y-92395774D01*
X69042096Y-92599319D01*
X69041904Y-92819714D01*
X69126067Y-93023406D01*
X69281774Y-93179385D01*
X69485319Y-93263904D01*
X69705714Y-93264096D01*
X69736246Y-93251481D01*
X69736246Y-95724372D01*
X69706681Y-95712096D01*
X69486286Y-95711904D01*
X69282594Y-95796067D01*
X69126615Y-95951774D01*
X69042096Y-96155319D01*
X69041904Y-96375714D01*
X69126067Y-96579406D01*
X69281774Y-96735385D01*
X69485319Y-96819904D01*
X69705714Y-96820096D01*
X69736246Y-96807481D01*
X69736246Y-97938339D01*
X69619726Y-97821615D01*
X69416181Y-97737096D01*
X69195786Y-97736904D01*
X68992094Y-97821067D01*
X68836115Y-97976774D01*
X68751596Y-98180319D01*
X68751404Y-98400714D01*
X68835567Y-98604406D01*
X68991274Y-98760385D01*
X69194819Y-98844904D01*
X69415214Y-98845096D01*
X69618906Y-98760933D01*
X69736246Y-98643798D01*
X69736246Y-99773802D01*
X68883582Y-100126115D01*
X68258998Y-100749609D01*
X68139657Y-100630059D01*
X68181714Y-100630096D01*
X68385406Y-100545933D01*
X68541385Y-100390226D01*
X68625904Y-100186681D01*
X68626096Y-99966286D01*
X68556892Y-99798798D01*
X68723319Y-99867904D01*
X68943714Y-99868096D01*
X69147406Y-99783933D01*
X69303385Y-99628226D01*
X69387904Y-99424681D01*
X69388096Y-99204286D01*
X69303933Y-99000594D01*
X69148226Y-98844615D01*
X68944681Y-98760096D01*
X68724286Y-98759904D01*
X68520594Y-98844067D01*
X68364615Y-98999774D01*
X68280096Y-99203319D01*
X68279904Y-99423714D01*
X68349108Y-99591202D01*
X68182681Y-99522096D01*
X67962286Y-99521904D01*
X67758594Y-99606067D01*
X67602615Y-99761774D01*
X67518096Y-99965319D01*
X67517904Y-100185714D01*
X67602067Y-100389406D01*
X67750343Y-100537941D01*
X67708286Y-100537904D01*
X67504594Y-100622067D01*
X67348615Y-100777774D01*
X67264096Y-100981319D01*
X67263904Y-101201714D01*
X67348067Y-101405406D01*
X67503774Y-101561385D01*
X67707319Y-101645904D01*
X67873394Y-101646049D01*
X67872597Y-102560838D01*
X68105208Y-103123800D01*
X68012594Y-103162067D01*
X67856615Y-103317774D01*
X67772096Y-103521319D01*
X67771904Y-103741714D01*
X67856067Y-103945406D01*
X68011774Y-104101385D01*
X68201258Y-104180066D01*
X67811120Y-104631800D01*
X67863904Y-104504681D01*
X67864096Y-104284286D01*
X67779933Y-104080594D01*
X67624226Y-103924615D01*
X67420681Y-103840096D01*
X67200286Y-103839904D01*
X66996594Y-103924067D01*
X66840615Y-104079774D01*
X66756096Y-104283319D01*
X66755904Y-104503714D01*
X66796512Y-104601995D01*
X66692286Y-104601904D01*
X66488594Y-104686067D01*
X66332615Y-104841774D01*
X66248096Y-105045319D01*
X66248058Y-105088705D01*
X66100226Y-104940615D01*
X65896681Y-104856096D01*
X65676286Y-104855904D01*
X65531940Y-104915546D01*
X65532170Y-104652515D01*
X65383744Y-104293297D01*
X65138155Y-104047279D01*
X65239385Y-103946226D01*
X65323904Y-103742681D01*
X65324096Y-103522286D01*
X65239933Y-103318594D01*
X65084226Y-103162615D01*
X64880681Y-103078096D01*
X64660286Y-103077904D01*
X64456594Y-103162067D01*
X64300615Y-103317774D01*
X64216096Y-103521319D01*
X64215904Y-103741714D01*
X64282002Y-103901684D01*
X64002297Y-104017256D01*
X63788251Y-104230928D01*
X63769933Y-104186594D01*
X63614226Y-104030615D01*
X63410681Y-103946096D01*
X63190286Y-103945904D01*
X62986594Y-104030067D01*
X62830615Y-104185774D01*
X62746096Y-104389319D01*
X62745904Y-104609714D01*
X62830067Y-104813406D01*
X62985774Y-104969385D01*
X63189319Y-105053904D01*
X63409714Y-105054096D01*
X63577878Y-104984613D01*
X63577830Y-105039485D01*
X63726256Y-105398703D01*
X64000851Y-105673778D01*
X64359810Y-105822830D01*
X64748485Y-105823170D01*
X65107703Y-105674744D01*
X65240986Y-105541694D01*
X65316067Y-105723406D01*
X65471774Y-105879385D01*
X65675319Y-105963904D01*
X65739960Y-105963960D01*
X65739904Y-106027714D01*
X65824067Y-106231406D01*
X65979774Y-106387385D01*
X66183319Y-106471904D01*
X66232855Y-106471947D01*
X66224231Y-106487150D01*
X66190873Y-106537073D01*
X66188153Y-106550748D01*
X66181274Y-106562874D01*
X66173889Y-106622459D01*
X66162176Y-106681345D01*
X66162176Y-106712161D01*
X65864552Y-106965379D01*
X65829072Y-106993396D01*
X65829096Y-106965286D01*
X65744933Y-106761594D01*
X65589226Y-106605615D01*
X65385681Y-106521096D01*
X65165286Y-106520904D01*
X64961594Y-106605067D01*
X64805615Y-106760774D01*
X64721096Y-106964319D01*
X64720904Y-107184714D01*
X64805067Y-107388406D01*
X64960774Y-107544385D01*
X65053445Y-107582865D01*
X64976140Y-107639147D01*
X64531428Y-107935425D01*
X64485738Y-107824844D01*
X64553904Y-107660681D01*
X64554096Y-107440286D01*
X64469933Y-107236594D01*
X64314226Y-107080615D01*
X64110681Y-106996096D01*
X63890286Y-106995904D01*
X63757000Y-107050976D01*
X63757000Y-106190000D01*
X63748242Y-106143655D01*
X63720895Y-106101304D01*
X63679226Y-106072928D01*
X63629801Y-106063000D01*
X62969464Y-106064037D01*
X63053904Y-105860681D01*
X63054096Y-105640286D01*
X62969933Y-105436594D01*
X62814226Y-105280615D01*
X62610681Y-105196096D01*
X62390286Y-105195904D01*
X62186594Y-105280067D01*
X62125029Y-105341524D01*
X62064226Y-105280615D01*
X61860681Y-105196096D01*
X61640286Y-105195904D01*
X61436594Y-105280067D01*
X61375029Y-105341524D01*
X61314226Y-105280615D01*
X61110681Y-105196096D01*
X60890286Y-105195904D01*
X60686594Y-105280067D01*
X60625029Y-105341524D01*
X60564226Y-105280615D01*
X60450155Y-105233249D01*
X60569385Y-105114226D01*
X60653904Y-104910681D01*
X60654096Y-104690286D01*
X60569933Y-104486594D01*
X60414226Y-104330615D01*
X60210681Y-104246096D01*
X60194513Y-104246082D01*
X60169933Y-104186594D01*
X60014226Y-104030615D01*
X59954083Y-104005641D01*
X59954096Y-103990286D01*
X59869933Y-103786594D01*
X59774707Y-103691202D01*
X59812280Y-103600714D01*
X60201404Y-103600714D01*
X60285567Y-103804406D01*
X60441274Y-103960385D01*
X60546083Y-104003905D01*
X60545904Y-104209714D01*
X60630067Y-104413406D01*
X60785774Y-104569385D01*
X60989319Y-104653904D01*
X61209714Y-104654096D01*
X61413406Y-104569933D01*
X61569385Y-104414226D01*
X61650094Y-104219856D01*
X61730067Y-104413406D01*
X61885774Y-104569385D01*
X62089319Y-104653904D01*
X62309714Y-104654096D01*
X62513406Y-104569933D01*
X62669385Y-104414226D01*
X62753904Y-104210681D01*
X62754096Y-103990286D01*
X62669933Y-103786594D01*
X62514226Y-103630615D01*
X62310681Y-103546096D01*
X62090286Y-103545904D01*
X61886594Y-103630067D01*
X61730615Y-103785774D01*
X61649906Y-103980144D01*
X61569933Y-103786594D01*
X61414226Y-103630615D01*
X61309417Y-103587095D01*
X61309541Y-103444960D01*
X61465214Y-103445096D01*
X61668906Y-103360933D01*
X61824885Y-103205226D01*
X61909404Y-103001681D01*
X61909596Y-102781286D01*
X61825433Y-102577594D01*
X61791241Y-102543342D01*
X61968906Y-102469933D01*
X62124885Y-102314226D01*
X62209404Y-102110681D01*
X62209499Y-102000714D01*
X64101404Y-102000714D01*
X64159407Y-102141094D01*
X64101596Y-102280319D01*
X64101404Y-102500714D01*
X64185567Y-102704406D01*
X64341274Y-102860385D01*
X64544819Y-102944904D01*
X64765214Y-102945096D01*
X64968906Y-102860933D01*
X65124885Y-102705226D01*
X65209404Y-102501681D01*
X65209596Y-102281286D01*
X65151593Y-102140906D01*
X65209404Y-102001681D01*
X65209596Y-101781286D01*
X65125433Y-101577594D01*
X64969726Y-101421615D01*
X64766181Y-101337096D01*
X64545786Y-101336904D01*
X64342094Y-101421067D01*
X64186115Y-101576774D01*
X64101596Y-101780319D01*
X64101404Y-102000714D01*
X62209499Y-102000714D01*
X62209564Y-101926771D01*
X62368906Y-101860933D01*
X62524885Y-101705226D01*
X62609404Y-101501681D01*
X62609596Y-101281286D01*
X62525433Y-101077594D01*
X62369726Y-100921615D01*
X62166181Y-100837096D01*
X61945786Y-100836904D01*
X61742094Y-100921067D01*
X61586115Y-101076774D01*
X61501596Y-101280319D01*
X61501436Y-101464229D01*
X61342094Y-101530067D01*
X61186115Y-101685774D01*
X61101596Y-101889319D01*
X61101404Y-102109714D01*
X61185567Y-102313406D01*
X61219759Y-102347658D01*
X61042094Y-102421067D01*
X60886115Y-102576774D01*
X60801596Y-102780319D01*
X60801459Y-102937040D01*
X60645786Y-102936904D01*
X60442094Y-103021067D01*
X60286115Y-103176774D01*
X60201596Y-103380319D01*
X60201404Y-103600714D01*
X59812280Y-103600714D01*
X59828904Y-103560681D01*
X59829096Y-103340286D01*
X59744933Y-103136594D01*
X59589226Y-102980615D01*
X59385681Y-102896096D01*
X59165286Y-102895904D01*
X58965357Y-102978512D01*
X59003904Y-102885681D01*
X59004096Y-102665286D01*
X58957058Y-102551444D01*
X59019385Y-102489226D01*
X59103904Y-102285681D01*
X59104096Y-102065286D01*
X59019933Y-101861594D01*
X58864226Y-101705615D01*
X58660681Y-101621096D01*
X58440286Y-101620904D01*
X58236594Y-101705067D01*
X58080615Y-101860774D01*
X57996096Y-102064319D01*
X57995904Y-102284714D01*
X58042942Y-102398556D01*
X57980615Y-102460774D01*
X57896096Y-102664319D01*
X57895904Y-102884714D01*
X57980067Y-103088406D01*
X58135774Y-103244385D01*
X58339319Y-103328904D01*
X58439198Y-103328991D01*
X58436594Y-103330067D01*
X58280615Y-103485774D01*
X58196096Y-103689319D01*
X58195904Y-103909714D01*
X58280067Y-104113406D01*
X58435774Y-104269385D01*
X58639319Y-104353904D01*
X58859714Y-104354096D01*
X58898875Y-104337915D01*
X58930067Y-104413406D01*
X59085774Y-104569385D01*
X59145917Y-104594359D01*
X59145904Y-104609714D01*
X59230067Y-104813406D01*
X59385774Y-104969385D01*
X59589319Y-105053904D01*
X59605487Y-105053918D01*
X59630067Y-105113406D01*
X59784778Y-105268387D01*
X59610681Y-105196096D01*
X59390286Y-105195904D01*
X59186594Y-105280067D01*
X59125029Y-105341524D01*
X59064226Y-105280615D01*
X58860681Y-105196096D01*
X58640286Y-105195904D01*
X58436594Y-105280067D01*
X58280615Y-105435774D01*
X58196096Y-105639319D01*
X58195904Y-105859714D01*
X58280067Y-106063406D01*
X58288033Y-106071386D01*
X57259801Y-106073000D01*
X57213841Y-106081685D01*
X57171447Y-106108965D01*
X57143006Y-106150590D01*
X57133000Y-106200000D01*
X57133000Y-107371072D01*
X56940286Y-107370904D01*
X56736594Y-107455067D01*
X56580615Y-107610774D01*
X56496096Y-107814319D01*
X56495904Y-108034714D01*
X56543552Y-108150032D01*
X56496096Y-108264319D01*
X56496040Y-108328513D01*
X56448226Y-108280615D01*
X56244681Y-108196096D01*
X56024286Y-108195904D01*
X55820594Y-108280067D01*
X55753019Y-108347524D01*
X55686226Y-108280615D01*
X55547383Y-108222962D01*
X55685406Y-108165933D01*
X55841385Y-108010226D01*
X55925904Y-107806681D01*
X55926096Y-107586286D01*
X55841933Y-107382594D01*
X55686226Y-107226615D01*
X55482681Y-107142096D01*
X55262286Y-107141904D01*
X55058594Y-107226067D01*
X54902615Y-107381774D01*
X54818096Y-107585319D01*
X54817904Y-107805714D01*
X54902067Y-108009406D01*
X55057774Y-108165385D01*
X55196617Y-108223038D01*
X55058594Y-108280067D01*
X54902615Y-108435774D01*
X54818096Y-108639319D01*
X54817904Y-108859714D01*
X54849361Y-108935847D01*
X53211237Y-108935847D01*
X52747309Y-108740970D01*
X52407712Y-108579792D01*
X52469385Y-108518226D01*
X52553904Y-108314681D01*
X52554096Y-108094286D01*
X52469933Y-107890594D01*
X52314226Y-107734615D01*
X52110681Y-107650096D01*
X51890286Y-107649904D01*
X51686594Y-107734067D01*
X51530615Y-107889774D01*
X51456585Y-108068058D01*
X51248356Y-107945197D01*
X50776701Y-107637847D01*
X50319918Y-107310587D01*
X50196694Y-107213858D01*
X50351406Y-107149933D01*
X50507385Y-106994226D01*
X50546629Y-106899714D01*
X51985904Y-106899714D01*
X52070067Y-107103406D01*
X52225774Y-107259385D01*
X52429319Y-107343904D01*
X52649714Y-107344096D01*
X52853406Y-107259933D01*
X53009385Y-107104226D01*
X53093904Y-106900681D01*
X53094096Y-106680286D01*
X53009933Y-106476594D01*
X52854226Y-106320615D01*
X52650681Y-106236096D01*
X52430286Y-106235904D01*
X52226594Y-106320067D01*
X52070615Y-106475774D01*
X51986096Y-106679319D01*
X51985904Y-106899714D01*
X50546629Y-106899714D01*
X50591904Y-106790681D01*
X50592096Y-106570286D01*
X50507933Y-106366594D01*
X50352226Y-106210615D01*
X50148681Y-106126096D01*
X49928286Y-106125904D01*
X49724594Y-106210067D01*
X49568615Y-106365774D01*
X49551592Y-106406769D01*
X49549552Y-106396512D01*
X49516207Y-106346608D01*
X49486601Y-106294404D01*
X48954649Y-105678308D01*
X49081406Y-105625933D01*
X49237385Y-105470226D01*
X49321904Y-105266681D01*
X49322096Y-105046286D01*
X49237933Y-104842594D01*
X49082226Y-104686615D01*
X48878681Y-104602096D01*
X48658286Y-104601904D01*
X48454594Y-104686067D01*
X48298615Y-104841774D01*
X48277101Y-104893585D01*
X47879281Y-104432838D01*
X48065406Y-104355933D01*
X48221385Y-104200226D01*
X48305904Y-103996681D01*
X48305904Y-103995714D01*
X49229904Y-103995714D01*
X49314067Y-104199406D01*
X49469774Y-104355385D01*
X49673319Y-104439904D01*
X49864676Y-104440071D01*
X49777170Y-104650810D01*
X49776830Y-105039485D01*
X49925256Y-105398703D01*
X50199851Y-105673778D01*
X50558810Y-105822830D01*
X50947485Y-105823170D01*
X51306703Y-105674744D01*
X51581778Y-105400149D01*
X51637599Y-105265714D01*
X51945904Y-105265714D01*
X52030067Y-105469406D01*
X52185774Y-105625385D01*
X52389319Y-105709904D01*
X52609714Y-105710096D01*
X52813406Y-105625933D01*
X52969385Y-105470226D01*
X53053904Y-105266681D01*
X53054096Y-105046286D01*
X53049315Y-105034714D01*
X53695904Y-105034714D01*
X53780067Y-105238406D01*
X53935774Y-105394385D01*
X54139319Y-105478904D01*
X54359714Y-105479096D01*
X54563406Y-105394933D01*
X54719385Y-105239226D01*
X54793924Y-105059714D01*
X57020904Y-105059714D01*
X57105067Y-105263406D01*
X57260774Y-105419385D01*
X57464319Y-105503904D01*
X57684714Y-105504096D01*
X57888406Y-105419933D01*
X58044385Y-105264226D01*
X58128904Y-105060681D01*
X58129096Y-104840286D01*
X58044933Y-104636594D01*
X57889226Y-104480615D01*
X57685681Y-104396096D01*
X57465286Y-104395904D01*
X57261594Y-104480067D01*
X57105615Y-104635774D01*
X57021096Y-104839319D01*
X57020904Y-105059714D01*
X54793924Y-105059714D01*
X54803904Y-105035681D01*
X54804096Y-104815286D01*
X54719933Y-104611594D01*
X54564226Y-104455615D01*
X54360681Y-104371096D01*
X54140286Y-104370904D01*
X53936594Y-104455067D01*
X53780615Y-104610774D01*
X53696096Y-104814319D01*
X53695904Y-105034714D01*
X53049315Y-105034714D01*
X52969933Y-104842594D01*
X52814226Y-104686615D01*
X52610681Y-104602096D01*
X52390286Y-104601904D01*
X52186594Y-104686067D01*
X52030615Y-104841774D01*
X51946096Y-105045319D01*
X51945904Y-105265714D01*
X51637599Y-105265714D01*
X51730830Y-105041190D01*
X51731170Y-104652515D01*
X51582744Y-104293297D01*
X51308149Y-104018222D01*
X50949190Y-103869170D01*
X50560515Y-103868830D01*
X50337935Y-103960798D01*
X50338066Y-103809714D01*
X51845904Y-103809714D01*
X51930067Y-104013406D01*
X52085774Y-104169385D01*
X52289319Y-104253904D01*
X52509714Y-104254096D01*
X52713406Y-104169933D01*
X52869385Y-104014226D01*
X52953904Y-103810681D01*
X52954096Y-103590286D01*
X52869933Y-103386594D01*
X52714226Y-103230615D01*
X52510681Y-103146096D01*
X52290286Y-103145904D01*
X52086594Y-103230067D01*
X51930615Y-103385774D01*
X51846096Y-103589319D01*
X51845904Y-103809714D01*
X50338066Y-103809714D01*
X50338096Y-103776286D01*
X50253933Y-103572594D01*
X50098226Y-103416615D01*
X49894681Y-103332096D01*
X49674286Y-103331904D01*
X49470594Y-103416067D01*
X49314615Y-103571774D01*
X49230096Y-103775319D01*
X49229904Y-103995714D01*
X48305904Y-103995714D01*
X48306096Y-103776286D01*
X48221933Y-103572594D01*
X48066226Y-103416615D01*
X47862681Y-103332096D01*
X47642286Y-103331904D01*
X47438594Y-103416067D01*
X47282615Y-103571774D01*
X47221042Y-103720060D01*
X47214009Y-103718117D01*
X47202398Y-103710359D01*
X47143534Y-103698650D01*
X47103137Y-103687492D01*
X47571585Y-103219861D01*
X47845702Y-102559714D01*
X56245904Y-102559714D01*
X56330067Y-102763406D01*
X56485774Y-102919385D01*
X56689319Y-103003904D01*
X56909714Y-103004096D01*
X57113406Y-102919933D01*
X57269385Y-102764226D01*
X57353904Y-102560681D01*
X57354096Y-102340286D01*
X57269933Y-102136594D01*
X57114226Y-101980615D01*
X56910681Y-101896096D01*
X56690286Y-101895904D01*
X56486594Y-101980067D01*
X56330615Y-102135774D01*
X56246096Y-102339319D01*
X56245904Y-102559714D01*
X47845702Y-102559714D01*
X47926596Y-102364900D01*
X47927341Y-101509714D01*
X53345904Y-101509714D01*
X53411259Y-101667888D01*
X53346096Y-101824819D01*
X53345904Y-102045214D01*
X53430067Y-102248906D01*
X53585774Y-102404885D01*
X53789319Y-102489404D01*
X54009714Y-102489596D01*
X54213406Y-102405433D01*
X54369385Y-102249726D01*
X54387388Y-102206370D01*
X54461274Y-102280385D01*
X54664819Y-102364904D01*
X54885214Y-102365096D01*
X55088906Y-102280933D01*
X55244885Y-102125226D01*
X55329404Y-101921681D01*
X55329596Y-101701286D01*
X55245433Y-101497594D01*
X55089726Y-101341615D01*
X54886181Y-101257096D01*
X54665786Y-101256904D01*
X54462094Y-101341067D01*
X54454045Y-101349102D01*
X54454096Y-101290286D01*
X54369933Y-101086594D01*
X54214226Y-100930615D01*
X54010681Y-100846096D01*
X53790286Y-100845904D01*
X53586594Y-100930067D01*
X53430615Y-101085774D01*
X53346096Y-101289319D01*
X53345904Y-101509714D01*
X47927341Y-101509714D01*
X47927403Y-101439162D01*
X47626002Y-100709714D01*
X62992404Y-100709714D01*
X63076567Y-100913406D01*
X63077309Y-100914149D01*
X63046096Y-100989319D01*
X63045904Y-101209714D01*
X63130067Y-101413406D01*
X63285774Y-101569385D01*
X63489319Y-101653904D01*
X63709714Y-101654096D01*
X63913406Y-101569933D01*
X64069385Y-101414226D01*
X64153904Y-101210681D01*
X64154096Y-100990286D01*
X64069933Y-100786594D01*
X64069191Y-100785851D01*
X64100404Y-100710681D01*
X64100596Y-100490286D01*
X64016433Y-100286594D01*
X63860726Y-100130615D01*
X63657181Y-100046096D01*
X63436786Y-100045904D01*
X63233094Y-100130067D01*
X63077115Y-100285774D01*
X62992596Y-100489319D01*
X62992404Y-100709714D01*
X47626002Y-100709714D01*
X47573885Y-100583582D01*
X47001019Y-100009714D01*
X49845904Y-100009714D01*
X49930067Y-100213406D01*
X50085774Y-100369385D01*
X50289319Y-100453904D01*
X50509714Y-100454096D01*
X50713406Y-100369933D01*
X50869385Y-100214226D01*
X50874995Y-100200714D01*
X52345904Y-100200714D01*
X52430067Y-100404406D01*
X52585774Y-100560385D01*
X52789319Y-100644904D01*
X53009714Y-100645096D01*
X53213406Y-100560933D01*
X53369385Y-100405226D01*
X53453904Y-100201681D01*
X53454096Y-99981286D01*
X53433614Y-99931714D01*
X55579904Y-99931714D01*
X55664067Y-100135406D01*
X55819774Y-100291385D01*
X56023319Y-100375904D01*
X56243714Y-100376096D01*
X56447406Y-100291933D01*
X56603385Y-100136226D01*
X56676678Y-99959714D01*
X57420904Y-99959714D01*
X57505067Y-100163406D01*
X57660774Y-100319385D01*
X57864319Y-100403904D01*
X58084714Y-100404096D01*
X58288406Y-100319933D01*
X58444385Y-100164226D01*
X58528904Y-99960681D01*
X58528929Y-99931714D01*
X59389904Y-99931714D01*
X59474067Y-100135406D01*
X59629774Y-100291385D01*
X59833319Y-100375904D01*
X60053714Y-100376096D01*
X60257406Y-100291933D01*
X60413385Y-100136226D01*
X60497904Y-99932681D01*
X60498096Y-99712286D01*
X60413933Y-99508594D01*
X60365139Y-99459714D01*
X61595904Y-99459714D01*
X61680067Y-99663406D01*
X61835774Y-99819385D01*
X62039319Y-99903904D01*
X62259714Y-99904096D01*
X62463406Y-99819933D01*
X62619385Y-99664226D01*
X62703904Y-99460681D01*
X62704096Y-99240286D01*
X62699728Y-99229714D01*
X63255904Y-99229714D01*
X63340067Y-99433406D01*
X63495774Y-99589385D01*
X63699319Y-99673904D01*
X63919714Y-99674096D01*
X64123406Y-99589933D01*
X64279385Y-99434226D01*
X64363904Y-99230681D01*
X64364096Y-99010286D01*
X64363860Y-99009714D01*
X66336904Y-99009714D01*
X66413754Y-99195706D01*
X66337096Y-99380319D01*
X66336904Y-99600714D01*
X66421067Y-99804406D01*
X66576774Y-99960385D01*
X66780319Y-100044904D01*
X67000714Y-100045096D01*
X67204406Y-99960933D01*
X67360385Y-99805226D01*
X67444904Y-99601681D01*
X67445096Y-99381286D01*
X67368246Y-99195294D01*
X67444904Y-99010681D01*
X67445096Y-98790286D01*
X67360933Y-98586594D01*
X67205226Y-98430615D01*
X67001681Y-98346096D01*
X66781286Y-98345904D01*
X66577594Y-98430067D01*
X66421615Y-98585774D01*
X66337096Y-98789319D01*
X66336904Y-99009714D01*
X64363860Y-99009714D01*
X64279933Y-98806594D01*
X64124226Y-98650615D01*
X63920681Y-98566096D01*
X63700286Y-98565904D01*
X63496594Y-98650067D01*
X63340615Y-98805774D01*
X63256096Y-99009319D01*
X63255904Y-99229714D01*
X62699728Y-99229714D01*
X62619933Y-99036594D01*
X62464226Y-98880615D01*
X62260681Y-98796096D01*
X62040286Y-98795904D01*
X61836594Y-98880067D01*
X61680615Y-99035774D01*
X61596096Y-99239319D01*
X61595904Y-99459714D01*
X60365139Y-99459714D01*
X60258226Y-99352615D01*
X60054681Y-99268096D01*
X59834286Y-99267904D01*
X59630594Y-99352067D01*
X59474615Y-99507774D01*
X59390096Y-99711319D01*
X59389904Y-99931714D01*
X58528929Y-99931714D01*
X58529096Y-99740286D01*
X58444933Y-99536594D01*
X58289226Y-99380615D01*
X58085681Y-99296096D01*
X57865286Y-99295904D01*
X57661594Y-99380067D01*
X57505615Y-99535774D01*
X57421096Y-99739319D01*
X57420904Y-99959714D01*
X56676678Y-99959714D01*
X56687904Y-99932681D01*
X56688096Y-99712286D01*
X56603933Y-99508594D01*
X56448226Y-99352615D01*
X56244681Y-99268096D01*
X56024286Y-99267904D01*
X55820594Y-99352067D01*
X55664615Y-99507774D01*
X55580096Y-99711319D01*
X55579904Y-99931714D01*
X53433614Y-99931714D01*
X53369933Y-99777594D01*
X53214226Y-99621615D01*
X53010681Y-99537096D01*
X52790286Y-99536904D01*
X52586594Y-99621067D01*
X52430615Y-99776774D01*
X52346096Y-99980319D01*
X52345904Y-100200714D01*
X50874995Y-100200714D01*
X50953904Y-100010681D01*
X50954096Y-99790286D01*
X50869933Y-99586594D01*
X50714226Y-99430615D01*
X50510681Y-99346096D01*
X50290286Y-99345904D01*
X50086594Y-99430067D01*
X49930615Y-99585774D01*
X49846096Y-99789319D01*
X49845904Y-100009714D01*
X47001019Y-100009714D01*
X46919861Y-99928415D01*
X46090182Y-99583902D01*
X46090182Y-97137714D01*
X46943904Y-97137714D01*
X47028067Y-97341406D01*
X47183774Y-97497385D01*
X47276747Y-97535991D01*
X47184594Y-97574067D01*
X47028615Y-97729774D01*
X46944096Y-97933319D01*
X46943904Y-98153714D01*
X47028067Y-98357406D01*
X47183774Y-98513385D01*
X47387319Y-98597904D01*
X47607714Y-98598096D01*
X47811406Y-98513933D01*
X47967385Y-98358226D01*
X48051904Y-98154681D01*
X48051943Y-98109714D01*
X55545904Y-98109714D01*
X55630067Y-98313406D01*
X55785774Y-98469385D01*
X55989319Y-98553904D01*
X56209714Y-98554096D01*
X56413406Y-98469933D01*
X56569385Y-98314226D01*
X56653904Y-98110681D01*
X56653904Y-98109714D01*
X57445904Y-98109714D01*
X57530067Y-98313406D01*
X57685774Y-98469385D01*
X57889319Y-98553904D01*
X58109714Y-98554096D01*
X58313406Y-98469933D01*
X58469385Y-98314226D01*
X58553904Y-98110681D01*
X58553904Y-98109714D01*
X59320904Y-98109714D01*
X59405067Y-98313406D01*
X59560774Y-98469385D01*
X59764319Y-98553904D01*
X59984714Y-98554096D01*
X60188406Y-98469933D01*
X60344385Y-98314226D01*
X60428904Y-98110681D01*
X60429096Y-97890286D01*
X60344933Y-97686594D01*
X60189226Y-97530615D01*
X59985681Y-97446096D01*
X59765286Y-97445904D01*
X59561594Y-97530067D01*
X59405615Y-97685774D01*
X59321096Y-97889319D01*
X59320904Y-98109714D01*
X58553904Y-98109714D01*
X58554096Y-97890286D01*
X58469933Y-97686594D01*
X58314226Y-97530615D01*
X58110681Y-97446096D01*
X57890286Y-97445904D01*
X57686594Y-97530067D01*
X57530615Y-97685774D01*
X57446096Y-97889319D01*
X57445904Y-98109714D01*
X56653904Y-98109714D01*
X56654096Y-97890286D01*
X56569933Y-97686594D01*
X56414226Y-97530615D01*
X56210681Y-97446096D01*
X55990286Y-97445904D01*
X55786594Y-97530067D01*
X55630615Y-97685774D01*
X55546096Y-97889319D01*
X55545904Y-98109714D01*
X48051943Y-98109714D01*
X48052096Y-97934286D01*
X47967933Y-97730594D01*
X47812226Y-97574615D01*
X47719253Y-97536009D01*
X47811406Y-97497933D01*
X47967385Y-97342226D01*
X48051904Y-97138681D01*
X48052096Y-96918286D01*
X48048555Y-96909714D01*
X62970904Y-96909714D01*
X63055067Y-97113406D01*
X63210774Y-97269385D01*
X63414319Y-97353904D01*
X63634714Y-97354096D01*
X63838406Y-97269933D01*
X63994385Y-97114226D01*
X64078904Y-96910681D01*
X64079044Y-96749638D01*
X64089319Y-96753904D01*
X64309714Y-96754096D01*
X64513406Y-96669933D01*
X64669385Y-96514226D01*
X64753904Y-96310681D01*
X64754096Y-96090286D01*
X64669933Y-95886594D01*
X64603137Y-95819681D01*
X64904849Y-95819681D01*
X65038082Y-96142131D01*
X65284571Y-96389051D01*
X65606789Y-96522847D01*
X65955681Y-96523151D01*
X66278131Y-96389918D01*
X66525051Y-96143429D01*
X66658847Y-95821211D01*
X66659151Y-95472319D01*
X66525918Y-95149869D01*
X66279429Y-94902949D01*
X65957211Y-94769153D01*
X65608319Y-94768849D01*
X65285869Y-94902082D01*
X65038949Y-95148571D01*
X64905153Y-95470789D01*
X64904849Y-95819681D01*
X64603137Y-95819681D01*
X64514226Y-95730615D01*
X64310681Y-95646096D01*
X64090286Y-95645904D01*
X63886594Y-95730067D01*
X63730615Y-95885774D01*
X63646096Y-96089319D01*
X63645956Y-96250362D01*
X63635681Y-96246096D01*
X63415286Y-96245904D01*
X63211594Y-96330067D01*
X63055615Y-96485774D01*
X62971096Y-96689319D01*
X62970904Y-96909714D01*
X48048555Y-96909714D01*
X47967933Y-96714594D01*
X47812226Y-96558615D01*
X47608681Y-96474096D01*
X47388286Y-96473904D01*
X47184594Y-96558067D01*
X47028615Y-96713774D01*
X46944096Y-96917319D01*
X46943904Y-97137714D01*
X46090182Y-97137714D01*
X46090182Y-96103681D01*
X49132849Y-96103681D01*
X49266082Y-96426131D01*
X49512571Y-96673051D01*
X49834789Y-96806847D01*
X50183681Y-96807151D01*
X50506131Y-96673918D01*
X50753051Y-96427429D01*
X50880409Y-96120714D01*
X51721404Y-96120714D01*
X51805567Y-96324406D01*
X51961274Y-96480385D01*
X52164819Y-96564904D01*
X52385214Y-96565096D01*
X52588906Y-96480933D01*
X52744885Y-96325226D01*
X52829390Y-96121714D01*
X55579904Y-96121714D01*
X55664067Y-96325406D01*
X55819774Y-96481385D01*
X56023319Y-96565904D01*
X56243714Y-96566096D01*
X56447406Y-96481933D01*
X56603385Y-96326226D01*
X56682907Y-96134714D01*
X57445904Y-96134714D01*
X57530067Y-96338406D01*
X57685774Y-96494385D01*
X57889319Y-96578904D01*
X58109714Y-96579096D01*
X58313406Y-96494933D01*
X58469385Y-96339226D01*
X58553904Y-96135681D01*
X58553916Y-96121714D01*
X59389904Y-96121714D01*
X59474067Y-96325406D01*
X59629774Y-96481385D01*
X59833319Y-96565904D01*
X60053714Y-96566096D01*
X60257406Y-96481933D01*
X60413385Y-96326226D01*
X60497904Y-96122681D01*
X60498096Y-95902286D01*
X60413933Y-95698594D01*
X60258226Y-95542615D01*
X60054681Y-95458096D01*
X59834286Y-95457904D01*
X59630594Y-95542067D01*
X59474615Y-95697774D01*
X59390096Y-95901319D01*
X59389904Y-96121714D01*
X58553916Y-96121714D01*
X58554096Y-95915286D01*
X58469933Y-95711594D01*
X58314226Y-95555615D01*
X58110681Y-95471096D01*
X57890286Y-95470904D01*
X57686594Y-95555067D01*
X57530615Y-95710774D01*
X57446096Y-95914319D01*
X57445904Y-96134714D01*
X56682907Y-96134714D01*
X56687904Y-96122681D01*
X56688096Y-95902286D01*
X56603933Y-95698594D01*
X56448226Y-95542615D01*
X56244681Y-95458096D01*
X56024286Y-95457904D01*
X55820594Y-95542067D01*
X55664615Y-95697774D01*
X55580096Y-95901319D01*
X55579904Y-96121714D01*
X52829390Y-96121714D01*
X52829404Y-96121681D01*
X52829596Y-95901286D01*
X52745433Y-95697594D01*
X52589726Y-95541615D01*
X52386181Y-95457096D01*
X52165786Y-95456904D01*
X51962094Y-95541067D01*
X51806115Y-95696774D01*
X51721596Y-95900319D01*
X51721404Y-96120714D01*
X50880409Y-96120714D01*
X50886847Y-96105211D01*
X50887151Y-95756319D01*
X50753918Y-95433869D01*
X50507429Y-95186949D01*
X50185211Y-95053153D01*
X49836319Y-95052849D01*
X49513869Y-95186082D01*
X49266949Y-95432571D01*
X49133153Y-95754789D01*
X49132849Y-96103681D01*
X46090182Y-96103681D01*
X46090182Y-94615278D01*
X46916418Y-94273885D01*
X47498012Y-93693305D01*
X47536067Y-93785406D01*
X47691774Y-93941385D01*
X47895319Y-94025904D01*
X48115714Y-94026096D01*
X48319406Y-93941933D01*
X48451855Y-93809714D01*
X66545904Y-93809714D01*
X66630067Y-94013406D01*
X66785774Y-94169385D01*
X66989319Y-94253904D01*
X67209714Y-94254096D01*
X67413406Y-94169933D01*
X67569385Y-94014226D01*
X67653904Y-93810681D01*
X67653912Y-93800714D01*
X68101404Y-93800714D01*
X68185567Y-94004406D01*
X68341274Y-94160385D01*
X68544819Y-94244904D01*
X68765214Y-94245096D01*
X68968906Y-94160933D01*
X69124885Y-94005226D01*
X69209404Y-93801681D01*
X69209596Y-93581286D01*
X69125433Y-93377594D01*
X68969726Y-93221615D01*
X68766181Y-93137096D01*
X68545786Y-93136904D01*
X68342094Y-93221067D01*
X68186115Y-93376774D01*
X68101596Y-93580319D01*
X68101404Y-93800714D01*
X67653912Y-93800714D01*
X67654096Y-93590286D01*
X67569933Y-93386594D01*
X67414226Y-93230615D01*
X67210681Y-93146096D01*
X66990286Y-93145904D01*
X66786594Y-93230067D01*
X66630615Y-93385774D01*
X66546096Y-93589319D01*
X66545904Y-93809714D01*
X48451855Y-93809714D01*
X48475385Y-93786226D01*
X48559904Y-93582681D01*
X48560096Y-93362286D01*
X48475933Y-93158594D01*
X48388207Y-93070714D01*
X57731404Y-93070714D01*
X57815567Y-93274406D01*
X57971274Y-93430385D01*
X58174819Y-93514904D01*
X58395214Y-93515096D01*
X58598906Y-93430933D01*
X58754885Y-93275226D01*
X58839404Y-93071681D01*
X58839596Y-92851286D01*
X58755433Y-92647594D01*
X58599726Y-92491615D01*
X58396181Y-92407096D01*
X58175786Y-92406904D01*
X57972094Y-92491067D01*
X57816115Y-92646774D01*
X57731596Y-92850319D01*
X57731404Y-93070714D01*
X48388207Y-93070714D01*
X48320226Y-93002615D01*
X48116681Y-92918096D01*
X47896286Y-92917904D01*
X47856183Y-92934474D01*
X47926596Y-92764900D01*
X47927268Y-91993932D01*
X48115714Y-91994096D01*
X48319406Y-91909933D01*
X48475385Y-91754226D01*
X48559904Y-91550681D01*
X48560096Y-91330286D01*
X48476101Y-91127000D01*
X67348106Y-91127000D01*
X67264096Y-91329319D01*
M02*
