G04 #@! TF.FileFunction,Legend,Top*
%FSLAX46Y46*%
G04 Gerber Fmt 4.6, Leading zero omitted, Abs format (unit mm)*
G04 Created by KiCad (PCBNEW 4.0.7) date 02/11/18 15:54:17*
%MOMM*%
%LPD*%
G01*
G04 APERTURE LIST*
%ADD10C,0.100000*%
%ADD11C,0.300000*%
%ADD12C,0.203200*%
%ADD13C,0.150000*%
%ADD14C,0.400000*%
%ADD15C,0.120000*%
%ADD16C,0.350000*%
G04 APERTURE END LIST*
D10*
D11*
X52916001Y-88562571D02*
X52916001Y-87562571D01*
X52916001Y-87848286D02*
X52987429Y-87705429D01*
X53058858Y-87634000D01*
X53201715Y-87562571D01*
X53344572Y-87562571D01*
X54416000Y-88491143D02*
X54273143Y-88562571D01*
X53987429Y-88562571D01*
X53844572Y-88491143D01*
X53773143Y-88348286D01*
X53773143Y-87776857D01*
X53844572Y-87634000D01*
X53987429Y-87562571D01*
X54273143Y-87562571D01*
X54416000Y-87634000D01*
X54487429Y-87776857D01*
X54487429Y-87919714D01*
X53773143Y-88062571D01*
X54987429Y-87562571D02*
X55344572Y-88562571D01*
X55701714Y-87562571D01*
X56273143Y-88419714D02*
X56344571Y-88491143D01*
X56273143Y-88562571D01*
X56201714Y-88491143D01*
X56273143Y-88419714D01*
X56273143Y-88562571D01*
X57773143Y-88562571D02*
X56916000Y-88562571D01*
X57344572Y-88562571D02*
X57344572Y-87062571D01*
X57201715Y-87276857D01*
X57058857Y-87419714D01*
X56916000Y-87491143D01*
X59558857Y-88562571D02*
X59558857Y-87562571D01*
X59558857Y-87062571D02*
X59487428Y-87134000D01*
X59558857Y-87205429D01*
X59630285Y-87134000D01*
X59558857Y-87062571D01*
X59558857Y-87205429D01*
X60201714Y-88491143D02*
X60344571Y-88562571D01*
X60630286Y-88562571D01*
X60773143Y-88491143D01*
X60844571Y-88348286D01*
X60844571Y-88276857D01*
X60773143Y-88134000D01*
X60630286Y-88062571D01*
X60416000Y-88062571D01*
X60273143Y-87991143D01*
X60201714Y-87848286D01*
X60201714Y-87776857D01*
X60273143Y-87634000D01*
X60416000Y-87562571D01*
X60630286Y-87562571D01*
X60773143Y-87634000D01*
X61416000Y-88491143D02*
X61558857Y-88562571D01*
X61844572Y-88562571D01*
X61987429Y-88491143D01*
X62058857Y-88348286D01*
X62058857Y-88276857D01*
X61987429Y-88134000D01*
X61844572Y-88062571D01*
X61630286Y-88062571D01*
X61487429Y-87991143D01*
X61416000Y-87848286D01*
X61416000Y-87776857D01*
X61487429Y-87634000D01*
X61630286Y-87562571D01*
X61844572Y-87562571D01*
X61987429Y-87634000D01*
X63416001Y-87062571D02*
X62701715Y-87062571D01*
X62630286Y-87776857D01*
X62701715Y-87705429D01*
X62844572Y-87634000D01*
X63201715Y-87634000D01*
X63344572Y-87705429D01*
X63416001Y-87776857D01*
X63487429Y-87919714D01*
X63487429Y-88276857D01*
X63416001Y-88419714D01*
X63344572Y-88491143D01*
X63201715Y-88562571D01*
X62844572Y-88562571D01*
X62701715Y-88491143D01*
X62630286Y-88419714D01*
X55902679Y-86607143D02*
X55750894Y-86678571D01*
X55465180Y-86678571D01*
X55331250Y-86607143D01*
X55268751Y-86535714D01*
X55215179Y-86392857D01*
X55268750Y-85964286D01*
X55358036Y-85821429D01*
X55438393Y-85750000D01*
X55590180Y-85678571D01*
X55875894Y-85678571D01*
X56009822Y-85750000D01*
X56536608Y-86678571D02*
X56724108Y-85178571D01*
X57179465Y-86678571D02*
X57277679Y-85892857D01*
X57224107Y-85750000D01*
X57090179Y-85678571D01*
X56875894Y-85678571D01*
X56724107Y-85750000D01*
X56643750Y-85821429D01*
X58536608Y-86678571D02*
X58634822Y-85892857D01*
X58581250Y-85750000D01*
X58447322Y-85678571D01*
X58161608Y-85678571D01*
X58009822Y-85750000D01*
X58545536Y-86607143D02*
X58393751Y-86678571D01*
X58036608Y-86678571D01*
X57902679Y-86607143D01*
X57849107Y-86464286D01*
X57866964Y-86321429D01*
X57956251Y-86178571D01*
X58108036Y-86107143D01*
X58465179Y-86107143D01*
X58616965Y-86035714D01*
X59250894Y-86678571D02*
X59375894Y-85678571D01*
X59340179Y-85964286D02*
X59429464Y-85821429D01*
X59509822Y-85750000D01*
X59661608Y-85678571D01*
X59804465Y-85678571D01*
X60393751Y-86678571D02*
X60259821Y-86607143D01*
X60197322Y-86535714D01*
X60143750Y-86392857D01*
X60197321Y-85964286D01*
X60286607Y-85821429D01*
X60366964Y-85750000D01*
X60518751Y-85678571D01*
X60733036Y-85678571D01*
X60866964Y-85750000D01*
X60929464Y-85821429D01*
X60983036Y-85964286D01*
X60929465Y-86392857D01*
X60840179Y-86535714D01*
X60759821Y-86607143D01*
X60608036Y-86678571D01*
X60393751Y-86678571D01*
X61661608Y-85678571D02*
X61536608Y-86678571D01*
X61643750Y-85821429D02*
X61724107Y-85750000D01*
X61875894Y-85678571D01*
X62090179Y-85678571D01*
X62224107Y-85750000D01*
X62277679Y-85892857D01*
X62179465Y-86678571D01*
D12*
X48100000Y-103700000D02*
X48100000Y-102700000D01*
X48950000Y-102700000D02*
X49051314Y-102700000D01*
X49900000Y-102700000D02*
X49900000Y-103700000D01*
X49900000Y-103700000D02*
X49450000Y-103700000D01*
X48550000Y-103700000D02*
X48100000Y-103700000D01*
D13*
X63450000Y-101625000D02*
X62950000Y-101625000D01*
X62950000Y-102575000D02*
X63450000Y-102575000D01*
X64610901Y-105987348D02*
X64257348Y-106340901D01*
X64929099Y-107012652D02*
X65282652Y-106659099D01*
X61850000Y-104425000D02*
X61350000Y-104425000D01*
X61350000Y-105375000D02*
X61850000Y-105375000D01*
D14*
X69655500Y-98841000D02*
G75*
G03X69655500Y-98841000I-200000J0D01*
G01*
D13*
X66705500Y-95941000D02*
X66705500Y-97241000D01*
X69705500Y-95941000D02*
X69705500Y-97241000D01*
D15*
X64050000Y-101241000D02*
X66350000Y-101241000D01*
X66350000Y-101241000D02*
X66350000Y-98541000D01*
X47360000Y-95471000D02*
X47360000Y-95711000D01*
X48240000Y-95711000D02*
X48240000Y-95471000D01*
D14*
X63106155Y-106050000D02*
G75*
G03X63106155Y-106050000I-206155J0D01*
G01*
D16*
X62150000Y-107800000D02*
X60900000Y-107800000D01*
D13*
X62900000Y-108100000D02*
X62900000Y-107500000D01*
X57900000Y-108100000D02*
X57900000Y-107500000D01*
X61200000Y-106800000D02*
X59600000Y-106800000D01*
X61200000Y-108800000D02*
X59600000Y-108800000D01*
D15*
X57200000Y-103400000D02*
X54800000Y-103400000D01*
X54800000Y-103400000D02*
X54800000Y-105000000D01*
X54800000Y-105000000D02*
X57200000Y-105000000D01*
D16*
X54650000Y-101750000D02*
G75*
G03X54650000Y-101750000I-150000J0D01*
G01*
D13*
X54500000Y-101500000D02*
X55000000Y-101500000D01*
X54500000Y-101000000D02*
X54500000Y-101500000D01*
X61500000Y-101500000D02*
X61000000Y-101500000D01*
X61500000Y-101000000D02*
X61500000Y-101500000D01*
X61500000Y-94500000D02*
X61000000Y-94500000D01*
X61500000Y-95000000D02*
X61500000Y-94500000D01*
X54500000Y-94500000D02*
X55000000Y-94500000D01*
X54500000Y-95000000D02*
X54500000Y-94500000D01*
X48942857Y-101928571D02*
X48885714Y-101900000D01*
X48828571Y-101842857D01*
X48742857Y-101757143D01*
X48685714Y-101728571D01*
X48628571Y-101728571D01*
X48657143Y-101871429D02*
X48600000Y-101842857D01*
X48542857Y-101785714D01*
X48514286Y-101671429D01*
X48514286Y-101471429D01*
X48542857Y-101357143D01*
X48600000Y-101300000D01*
X48657143Y-101271429D01*
X48771429Y-101271429D01*
X48828571Y-101300000D01*
X48885714Y-101357143D01*
X48914286Y-101471429D01*
X48914286Y-101671429D01*
X48885714Y-101785714D01*
X48828571Y-101842857D01*
X48771429Y-101871429D01*
X48657143Y-101871429D01*
X49485714Y-101871429D02*
X49142857Y-101871429D01*
X49314285Y-101871429D02*
X49314285Y-101271429D01*
X49257142Y-101357143D01*
X49200000Y-101414286D01*
X49142857Y-101442857D01*
X64500000Y-103471429D02*
X64214286Y-103471429D01*
X64214286Y-102871429D01*
X64957143Y-103071429D02*
X64957143Y-103471429D01*
X64814286Y-102842857D02*
X64671429Y-103271429D01*
X65042857Y-103271429D01*
X65100000Y-102214286D02*
X65071429Y-102242857D01*
X64985715Y-102271429D01*
X64928572Y-102271429D01*
X64842857Y-102242857D01*
X64785715Y-102185714D01*
X64757143Y-102128571D01*
X64728572Y-102014286D01*
X64728572Y-101928571D01*
X64757143Y-101814286D01*
X64785715Y-101757143D01*
X64842857Y-101700000D01*
X64928572Y-101671429D01*
X64985715Y-101671429D01*
X65071429Y-101700000D01*
X65100000Y-101728571D01*
X65442857Y-101928571D02*
X65385715Y-101900000D01*
X65357143Y-101871429D01*
X65328572Y-101814286D01*
X65328572Y-101785714D01*
X65357143Y-101728571D01*
X65385715Y-101700000D01*
X65442857Y-101671429D01*
X65557143Y-101671429D01*
X65614286Y-101700000D01*
X65642857Y-101728571D01*
X65671429Y-101785714D01*
X65671429Y-101814286D01*
X65642857Y-101871429D01*
X65614286Y-101900000D01*
X65557143Y-101928571D01*
X65442857Y-101928571D01*
X65385715Y-101957143D01*
X65357143Y-101985714D01*
X65328572Y-102042857D01*
X65328572Y-102157143D01*
X65357143Y-102214286D01*
X65385715Y-102242857D01*
X65442857Y-102271429D01*
X65557143Y-102271429D01*
X65614286Y-102242857D01*
X65642857Y-102214286D01*
X65671429Y-102157143D01*
X65671429Y-102042857D01*
X65642857Y-101985714D01*
X65614286Y-101957143D01*
X65557143Y-101928571D01*
X66250812Y-105222234D02*
X66250812Y-105262639D01*
X66210407Y-105343452D01*
X66170001Y-105383858D01*
X66089188Y-105424264D01*
X66008376Y-105424263D01*
X65947766Y-105404061D01*
X65846752Y-105343452D01*
X65786142Y-105282842D01*
X65725533Y-105181828D01*
X65705330Y-105121218D01*
X65705330Y-105040406D01*
X65745737Y-104959594D01*
X65786143Y-104919188D01*
X65866955Y-104878781D01*
X65907360Y-104878781D01*
X66008376Y-104696955D02*
X66271016Y-104434315D01*
X66291219Y-104737360D01*
X66351828Y-104676751D01*
X66412437Y-104656548D01*
X66452843Y-104656548D01*
X66513452Y-104676751D01*
X66614468Y-104777766D01*
X66634670Y-104838376D01*
X66634670Y-104878781D01*
X66614468Y-104939391D01*
X66493250Y-105060609D01*
X66432640Y-105080812D01*
X66392234Y-105080812D01*
X59500000Y-105014286D02*
X59471429Y-105042857D01*
X59385715Y-105071429D01*
X59328572Y-105071429D01*
X59242857Y-105042857D01*
X59185715Y-104985714D01*
X59157143Y-104928571D01*
X59128572Y-104814286D01*
X59128572Y-104728571D01*
X59157143Y-104614286D01*
X59185715Y-104557143D01*
X59242857Y-104500000D01*
X59328572Y-104471429D01*
X59385715Y-104471429D01*
X59471429Y-104500000D01*
X59500000Y-104528571D01*
X60014286Y-104671429D02*
X60014286Y-105071429D01*
X59871429Y-104442857D02*
X59728572Y-104871429D01*
X60100000Y-104871429D01*
X54350000Y-105614286D02*
X54321429Y-105642857D01*
X54235715Y-105671429D01*
X54178572Y-105671429D01*
X54092857Y-105642857D01*
X54035715Y-105585714D01*
X54007143Y-105528571D01*
X53978572Y-105414286D01*
X53978572Y-105328571D01*
X54007143Y-105214286D01*
X54035715Y-105157143D01*
X54092857Y-105100000D01*
X54178572Y-105071429D01*
X54235715Y-105071429D01*
X54321429Y-105100000D01*
X54350000Y-105128571D01*
X54921429Y-105671429D02*
X54578572Y-105671429D01*
X54750000Y-105671429D02*
X54750000Y-105071429D01*
X54692857Y-105157143D01*
X54635715Y-105214286D01*
X54578572Y-105242857D01*
X57500000Y-105789286D02*
X57471429Y-105817857D01*
X57385715Y-105846429D01*
X57328572Y-105846429D01*
X57242857Y-105817857D01*
X57185715Y-105760714D01*
X57157143Y-105703571D01*
X57128572Y-105589286D01*
X57128572Y-105503571D01*
X57157143Y-105389286D01*
X57185715Y-105332143D01*
X57242857Y-105275000D01*
X57328572Y-105246429D01*
X57385715Y-105246429D01*
X57471429Y-105275000D01*
X57500000Y-105303571D01*
X57728572Y-105303571D02*
X57757143Y-105275000D01*
X57814286Y-105246429D01*
X57957143Y-105246429D01*
X58014286Y-105275000D01*
X58042857Y-105303571D01*
X58071429Y-105360714D01*
X58071429Y-105417857D01*
X58042857Y-105503571D01*
X57700000Y-105846429D01*
X58071429Y-105846429D01*
X51700000Y-102014286D02*
X51671429Y-102042857D01*
X51585715Y-102071429D01*
X51528572Y-102071429D01*
X51442857Y-102042857D01*
X51385715Y-101985714D01*
X51357143Y-101928571D01*
X51328572Y-101814286D01*
X51328572Y-101728571D01*
X51357143Y-101614286D01*
X51385715Y-101557143D01*
X51442857Y-101500000D01*
X51528572Y-101471429D01*
X51585715Y-101471429D01*
X51671429Y-101500000D01*
X51700000Y-101528571D01*
X52242857Y-101471429D02*
X51957143Y-101471429D01*
X51928572Y-101757143D01*
X51957143Y-101728571D01*
X52014286Y-101700000D01*
X52157143Y-101700000D01*
X52214286Y-101728571D01*
X52242857Y-101757143D01*
X52271429Y-101814286D01*
X52271429Y-101957143D01*
X52242857Y-102014286D01*
X52214286Y-102042857D01*
X52157143Y-102071429D01*
X52014286Y-102071429D01*
X51957143Y-102042857D01*
X51928572Y-102014286D01*
X52700000Y-103114286D02*
X52671429Y-103142857D01*
X52585715Y-103171429D01*
X52528572Y-103171429D01*
X52442857Y-103142857D01*
X52385715Y-103085714D01*
X52357143Y-103028571D01*
X52328572Y-102914286D01*
X52328572Y-102828571D01*
X52357143Y-102714286D01*
X52385715Y-102657143D01*
X52442857Y-102600000D01*
X52528572Y-102571429D01*
X52585715Y-102571429D01*
X52671429Y-102600000D01*
X52700000Y-102628571D01*
X53214286Y-102571429D02*
X53100000Y-102571429D01*
X53042857Y-102600000D01*
X53014286Y-102628571D01*
X52957143Y-102714286D01*
X52928572Y-102828571D01*
X52928572Y-103057143D01*
X52957143Y-103114286D01*
X52985715Y-103142857D01*
X53042857Y-103171429D01*
X53157143Y-103171429D01*
X53214286Y-103142857D01*
X53242857Y-103114286D01*
X53271429Y-103057143D01*
X53271429Y-102914286D01*
X53242857Y-102857143D01*
X53214286Y-102828571D01*
X53157143Y-102800000D01*
X53042857Y-102800000D01*
X52985715Y-102828571D01*
X52957143Y-102857143D01*
X52928572Y-102914286D01*
X53100000Y-99614286D02*
X53071429Y-99642857D01*
X52985715Y-99671429D01*
X52928572Y-99671429D01*
X52842857Y-99642857D01*
X52785715Y-99585714D01*
X52757143Y-99528571D01*
X52728572Y-99414286D01*
X52728572Y-99328571D01*
X52757143Y-99214286D01*
X52785715Y-99157143D01*
X52842857Y-99100000D01*
X52928572Y-99071429D01*
X52985715Y-99071429D01*
X53071429Y-99100000D01*
X53100000Y-99128571D01*
X53300000Y-99071429D02*
X53700000Y-99071429D01*
X53442857Y-99671429D01*
X57900000Y-103014286D02*
X57871429Y-103042857D01*
X57785715Y-103071429D01*
X57728572Y-103071429D01*
X57642857Y-103042857D01*
X57585715Y-102985714D01*
X57557143Y-102928571D01*
X57528572Y-102814286D01*
X57528572Y-102728571D01*
X57557143Y-102614286D01*
X57585715Y-102557143D01*
X57642857Y-102500000D01*
X57728572Y-102471429D01*
X57785715Y-102471429D01*
X57871429Y-102500000D01*
X57900000Y-102528571D01*
X58185715Y-103071429D02*
X58300000Y-103071429D01*
X58357143Y-103042857D01*
X58385715Y-103014286D01*
X58442857Y-102928571D01*
X58471429Y-102814286D01*
X58471429Y-102585714D01*
X58442857Y-102528571D01*
X58414286Y-102500000D01*
X58357143Y-102471429D01*
X58242857Y-102471429D01*
X58185715Y-102500000D01*
X58157143Y-102528571D01*
X58128572Y-102585714D01*
X58128572Y-102728571D01*
X58157143Y-102785714D01*
X58185715Y-102814286D01*
X58242857Y-102842857D01*
X58357143Y-102842857D01*
X58414286Y-102814286D01*
X58442857Y-102785714D01*
X58471429Y-102728571D01*
X56214285Y-102614286D02*
X56185714Y-102642857D01*
X56100000Y-102671429D01*
X56042857Y-102671429D01*
X55957142Y-102642857D01*
X55900000Y-102585714D01*
X55871428Y-102528571D01*
X55842857Y-102414286D01*
X55842857Y-102328571D01*
X55871428Y-102214286D01*
X55900000Y-102157143D01*
X55957142Y-102100000D01*
X56042857Y-102071429D01*
X56100000Y-102071429D01*
X56185714Y-102100000D01*
X56214285Y-102128571D01*
X56785714Y-102671429D02*
X56442857Y-102671429D01*
X56614285Y-102671429D02*
X56614285Y-102071429D01*
X56557142Y-102157143D01*
X56500000Y-102214286D01*
X56442857Y-102242857D01*
X57157143Y-102071429D02*
X57214286Y-102071429D01*
X57271429Y-102100000D01*
X57300000Y-102128571D01*
X57328571Y-102185714D01*
X57357143Y-102300000D01*
X57357143Y-102442857D01*
X57328571Y-102557143D01*
X57300000Y-102614286D01*
X57271429Y-102642857D01*
X57214286Y-102671429D01*
X57157143Y-102671429D01*
X57100000Y-102642857D01*
X57071429Y-102614286D01*
X57042857Y-102557143D01*
X57014286Y-102442857D01*
X57014286Y-102300000D01*
X57042857Y-102185714D01*
X57071429Y-102128571D01*
X57100000Y-102100000D01*
X57157143Y-102071429D01*
X56014285Y-93414286D02*
X55985714Y-93442857D01*
X55900000Y-93471429D01*
X55842857Y-93471429D01*
X55757142Y-93442857D01*
X55700000Y-93385714D01*
X55671428Y-93328571D01*
X55642857Y-93214286D01*
X55642857Y-93128571D01*
X55671428Y-93014286D01*
X55700000Y-92957143D01*
X55757142Y-92900000D01*
X55842857Y-92871429D01*
X55900000Y-92871429D01*
X55985714Y-92900000D01*
X56014285Y-92928571D01*
X56585714Y-93471429D02*
X56242857Y-93471429D01*
X56414285Y-93471429D02*
X56414285Y-92871429D01*
X56357142Y-92957143D01*
X56300000Y-93014286D01*
X56242857Y-93042857D01*
X57157143Y-93471429D02*
X56814286Y-93471429D01*
X56985714Y-93471429D02*
X56985714Y-92871429D01*
X56928571Y-92957143D01*
X56871429Y-93014286D01*
X56814286Y-93042857D01*
X67014285Y-99214286D02*
X66985714Y-99242857D01*
X66900000Y-99271429D01*
X66842857Y-99271429D01*
X66757142Y-99242857D01*
X66700000Y-99185714D01*
X66671428Y-99128571D01*
X66642857Y-99014286D01*
X66642857Y-98928571D01*
X66671428Y-98814286D01*
X66700000Y-98757143D01*
X66757142Y-98700000D01*
X66842857Y-98671429D01*
X66900000Y-98671429D01*
X66985714Y-98700000D01*
X67014285Y-98728571D01*
X67585714Y-99271429D02*
X67242857Y-99271429D01*
X67414285Y-99271429D02*
X67414285Y-98671429D01*
X67357142Y-98757143D01*
X67300000Y-98814286D01*
X67242857Y-98842857D01*
X67814286Y-98728571D02*
X67842857Y-98700000D01*
X67900000Y-98671429D01*
X68042857Y-98671429D01*
X68100000Y-98700000D01*
X68128571Y-98728571D01*
X68157143Y-98785714D01*
X68157143Y-98842857D01*
X68128571Y-98928571D01*
X67785714Y-99271429D01*
X68157143Y-99271429D01*
X64014285Y-97414286D02*
X63985714Y-97442857D01*
X63900000Y-97471429D01*
X63842857Y-97471429D01*
X63757142Y-97442857D01*
X63700000Y-97385714D01*
X63671428Y-97328571D01*
X63642857Y-97214286D01*
X63642857Y-97128571D01*
X63671428Y-97014286D01*
X63700000Y-96957143D01*
X63757142Y-96900000D01*
X63842857Y-96871429D01*
X63900000Y-96871429D01*
X63985714Y-96900000D01*
X64014285Y-96928571D01*
X64585714Y-97471429D02*
X64242857Y-97471429D01*
X64414285Y-97471429D02*
X64414285Y-96871429D01*
X64357142Y-96957143D01*
X64300000Y-97014286D01*
X64242857Y-97042857D01*
X64785714Y-96871429D02*
X65157143Y-96871429D01*
X64957143Y-97100000D01*
X65042857Y-97100000D01*
X65100000Y-97128571D01*
X65128571Y-97157143D01*
X65157143Y-97214286D01*
X65157143Y-97357143D01*
X65128571Y-97414286D01*
X65100000Y-97442857D01*
X65042857Y-97471429D01*
X64871429Y-97471429D01*
X64814286Y-97442857D01*
X64785714Y-97414286D01*
X51614286Y-96976715D02*
X51642857Y-97005286D01*
X51671429Y-97091000D01*
X51671429Y-97148143D01*
X51642857Y-97233858D01*
X51585714Y-97291000D01*
X51528571Y-97319572D01*
X51414286Y-97348143D01*
X51328571Y-97348143D01*
X51214286Y-97319572D01*
X51157143Y-97291000D01*
X51100000Y-97233858D01*
X51071429Y-97148143D01*
X51071429Y-97091000D01*
X51100000Y-97005286D01*
X51128571Y-96976715D01*
X51671429Y-96405286D02*
X51671429Y-96748143D01*
X51671429Y-96576715D02*
X51071429Y-96576715D01*
X51157143Y-96633858D01*
X51214286Y-96691000D01*
X51242857Y-96748143D01*
X51271429Y-95891000D02*
X51671429Y-95891000D01*
X51042857Y-96033857D02*
X51471429Y-96176714D01*
X51471429Y-95805286D01*
X67014285Y-101014286D02*
X66985714Y-101042857D01*
X66900000Y-101071429D01*
X66842857Y-101071429D01*
X66757142Y-101042857D01*
X66700000Y-100985714D01*
X66671428Y-100928571D01*
X66642857Y-100814286D01*
X66642857Y-100728571D01*
X66671428Y-100614286D01*
X66700000Y-100557143D01*
X66757142Y-100500000D01*
X66842857Y-100471429D01*
X66900000Y-100471429D01*
X66985714Y-100500000D01*
X67014285Y-100528571D01*
X67585714Y-101071429D02*
X67242857Y-101071429D01*
X67414285Y-101071429D02*
X67414285Y-100471429D01*
X67357142Y-100557143D01*
X67300000Y-100614286D01*
X67242857Y-100642857D01*
X68128571Y-100471429D02*
X67842857Y-100471429D01*
X67814286Y-100757143D01*
X67842857Y-100728571D01*
X67900000Y-100700000D01*
X68042857Y-100700000D01*
X68100000Y-100728571D01*
X68128571Y-100757143D01*
X68157143Y-100814286D01*
X68157143Y-100957143D01*
X68128571Y-101014286D01*
X68100000Y-101042857D01*
X68042857Y-101071429D01*
X67900000Y-101071429D01*
X67842857Y-101042857D01*
X67814286Y-101014286D01*
X61814286Y-103076715D02*
X61842857Y-103105286D01*
X61871429Y-103191000D01*
X61871429Y-103248143D01*
X61842857Y-103333858D01*
X61785714Y-103391000D01*
X61728571Y-103419572D01*
X61614286Y-103448143D01*
X61528571Y-103448143D01*
X61414286Y-103419572D01*
X61357143Y-103391000D01*
X61300000Y-103333858D01*
X61271429Y-103248143D01*
X61271429Y-103191000D01*
X61300000Y-103105286D01*
X61328571Y-103076715D01*
X61871429Y-102505286D02*
X61871429Y-102848143D01*
X61871429Y-102676715D02*
X61271429Y-102676715D01*
X61357143Y-102733858D01*
X61414286Y-102791000D01*
X61442857Y-102848143D01*
X61271429Y-101991000D02*
X61271429Y-102105286D01*
X61300000Y-102162429D01*
X61328571Y-102191000D01*
X61414286Y-102248143D01*
X61528571Y-102276714D01*
X61757143Y-102276714D01*
X61814286Y-102248143D01*
X61842857Y-102219571D01*
X61871429Y-102162429D01*
X61871429Y-102048143D01*
X61842857Y-101991000D01*
X61814286Y-101962429D01*
X61757143Y-101933857D01*
X61614286Y-101933857D01*
X61557143Y-101962429D01*
X61528571Y-101991000D01*
X61500000Y-102048143D01*
X61500000Y-102162429D01*
X61528571Y-102219571D01*
X61557143Y-102248143D01*
X61614286Y-102276714D01*
X68599785Y-93814286D02*
X68571214Y-93842857D01*
X68485500Y-93871429D01*
X68428357Y-93871429D01*
X68342642Y-93842857D01*
X68285500Y-93785714D01*
X68256928Y-93728571D01*
X68228357Y-93614286D01*
X68228357Y-93528571D01*
X68256928Y-93414286D01*
X68285500Y-93357143D01*
X68342642Y-93300000D01*
X68428357Y-93271429D01*
X68485500Y-93271429D01*
X68571214Y-93300000D01*
X68599785Y-93328571D01*
X69171214Y-93871429D02*
X68828357Y-93871429D01*
X68999785Y-93871429D02*
X68999785Y-93271429D01*
X68942642Y-93357143D01*
X68885500Y-93414286D01*
X68828357Y-93442857D01*
X69371214Y-93271429D02*
X69771214Y-93271429D01*
X69514071Y-93871429D01*
X66614285Y-93814286D02*
X66585714Y-93842857D01*
X66500000Y-93871429D01*
X66442857Y-93871429D01*
X66357142Y-93842857D01*
X66300000Y-93785714D01*
X66271428Y-93728571D01*
X66242857Y-93614286D01*
X66242857Y-93528571D01*
X66271428Y-93414286D01*
X66300000Y-93357143D01*
X66357142Y-93300000D01*
X66442857Y-93271429D01*
X66500000Y-93271429D01*
X66585714Y-93300000D01*
X66614285Y-93328571D01*
X67185714Y-93871429D02*
X66842857Y-93871429D01*
X67014285Y-93871429D02*
X67014285Y-93271429D01*
X66957142Y-93357143D01*
X66900000Y-93414286D01*
X66842857Y-93442857D01*
X67528571Y-93528571D02*
X67471429Y-93500000D01*
X67442857Y-93471429D01*
X67414286Y-93414286D01*
X67414286Y-93385714D01*
X67442857Y-93328571D01*
X67471429Y-93300000D01*
X67528571Y-93271429D01*
X67642857Y-93271429D01*
X67700000Y-93300000D01*
X67728571Y-93328571D01*
X67757143Y-93385714D01*
X67757143Y-93414286D01*
X67728571Y-93471429D01*
X67700000Y-93500000D01*
X67642857Y-93528571D01*
X67528571Y-93528571D01*
X67471429Y-93557143D01*
X67442857Y-93585714D01*
X67414286Y-93642857D01*
X67414286Y-93757143D01*
X67442857Y-93814286D01*
X67471429Y-93842857D01*
X67528571Y-93871429D01*
X67642857Y-93871429D01*
X67700000Y-93842857D01*
X67728571Y-93814286D01*
X67757143Y-93757143D01*
X67757143Y-93642857D01*
X67728571Y-93585714D01*
X67700000Y-93557143D01*
X67642857Y-93528571D01*
X65626929Y-97048143D02*
X66112643Y-97048143D01*
X66169786Y-97019571D01*
X66198357Y-96991000D01*
X66226929Y-96933857D01*
X66226929Y-96819571D01*
X66198357Y-96762429D01*
X66169786Y-96733857D01*
X66112643Y-96705286D01*
X65626929Y-96705286D01*
X65626929Y-96476715D02*
X65626929Y-96105286D01*
X65855500Y-96305286D01*
X65855500Y-96219572D01*
X65884071Y-96162429D01*
X65912643Y-96133858D01*
X65969786Y-96105286D01*
X66112643Y-96105286D01*
X66169786Y-96133858D01*
X66198357Y-96162429D01*
X66226929Y-96219572D01*
X66226929Y-96391000D01*
X66198357Y-96448143D01*
X66169786Y-96476715D01*
X66914286Y-99876714D02*
X66914286Y-100162429D01*
X66714286Y-99562429D02*
X66914286Y-99876714D01*
X67114286Y-99562429D01*
X67285715Y-99619571D02*
X67314286Y-99591000D01*
X67371429Y-99562429D01*
X67514286Y-99562429D01*
X67571429Y-99591000D01*
X67600000Y-99619571D01*
X67628572Y-99676714D01*
X67628572Y-99733857D01*
X67600000Y-99819571D01*
X67257143Y-100162429D01*
X67628572Y-100162429D01*
X50700000Y-102671429D02*
X50500000Y-102385714D01*
X50357143Y-102671429D02*
X50357143Y-102071429D01*
X50585715Y-102071429D01*
X50642857Y-102100000D01*
X50671429Y-102128571D01*
X50700000Y-102185714D01*
X50700000Y-102271429D01*
X50671429Y-102328571D01*
X50642857Y-102357143D01*
X50585715Y-102385714D01*
X50357143Y-102385714D01*
X50928572Y-102128571D02*
X50957143Y-102100000D01*
X51014286Y-102071429D01*
X51157143Y-102071429D01*
X51214286Y-102100000D01*
X51242857Y-102128571D01*
X51271429Y-102185714D01*
X51271429Y-102242857D01*
X51242857Y-102328571D01*
X50900000Y-102671429D01*
X51271429Y-102671429D01*
X48071429Y-97100000D02*
X47785714Y-97300000D01*
X48071429Y-97442857D02*
X47471429Y-97442857D01*
X47471429Y-97214285D01*
X47500000Y-97157143D01*
X47528571Y-97128571D01*
X47585714Y-97100000D01*
X47671429Y-97100000D01*
X47728571Y-97128571D01*
X47757143Y-97157143D01*
X47785714Y-97214285D01*
X47785714Y-97442857D01*
X47471429Y-96900000D02*
X47471429Y-96528571D01*
X47700000Y-96728571D01*
X47700000Y-96642857D01*
X47728571Y-96585714D01*
X47757143Y-96557143D01*
X47814286Y-96528571D01*
X47957143Y-96528571D01*
X48014286Y-96557143D01*
X48042857Y-96585714D01*
X48071429Y-96642857D01*
X48071429Y-96814285D01*
X48042857Y-96871428D01*
X48014286Y-96900000D01*
X63057143Y-93321429D02*
X63057143Y-92721429D01*
X63285715Y-92721429D01*
X63342857Y-92750000D01*
X63371429Y-92778571D01*
X63400000Y-92835714D01*
X63400000Y-92921429D01*
X63371429Y-92978571D01*
X63342857Y-93007143D01*
X63285715Y-93035714D01*
X63057143Y-93035714D01*
X63971429Y-93321429D02*
X63628572Y-93321429D01*
X63800000Y-93321429D02*
X63800000Y-92721429D01*
X63742857Y-92807143D01*
X63685715Y-92864286D01*
X63628572Y-92892857D01*
X65557143Y-92671429D02*
X65557143Y-92071429D01*
X65785715Y-92071429D01*
X65842857Y-92100000D01*
X65871429Y-92128571D01*
X65900000Y-92185714D01*
X65900000Y-92271429D01*
X65871429Y-92328571D01*
X65842857Y-92357143D01*
X65785715Y-92385714D01*
X65557143Y-92385714D01*
X66128572Y-92128571D02*
X66157143Y-92100000D01*
X66214286Y-92071429D01*
X66357143Y-92071429D01*
X66414286Y-92100000D01*
X66442857Y-92128571D01*
X66471429Y-92185714D01*
X66471429Y-92242857D01*
X66442857Y-92328571D01*
X66100000Y-92671429D01*
X66471429Y-92671429D01*
X49557143Y-100871429D02*
X49557143Y-100271429D01*
X49785715Y-100271429D01*
X49842857Y-100300000D01*
X49871429Y-100328571D01*
X49900000Y-100385714D01*
X49900000Y-100471429D01*
X49871429Y-100528571D01*
X49842857Y-100557143D01*
X49785715Y-100585714D01*
X49557143Y-100585714D01*
X50100000Y-100271429D02*
X50471429Y-100271429D01*
X50271429Y-100500000D01*
X50357143Y-100500000D01*
X50414286Y-100528571D01*
X50442857Y-100557143D01*
X50471429Y-100614286D01*
X50471429Y-100757143D01*
X50442857Y-100814286D01*
X50414286Y-100842857D01*
X50357143Y-100871429D01*
X50185715Y-100871429D01*
X50128572Y-100842857D01*
X50100000Y-100814286D01*
X55700000Y-108500000D02*
X55985714Y-108500000D01*
X55642857Y-108671429D02*
X55842857Y-108071429D01*
X56042857Y-108671429D01*
X56242857Y-108357143D02*
X56442857Y-108357143D01*
X56528571Y-108671429D02*
X56242857Y-108671429D01*
X56242857Y-108071429D01*
X56528571Y-108071429D01*
X57100000Y-108671429D02*
X56757143Y-108671429D01*
X56928571Y-108671429D02*
X56928571Y-108071429D01*
X56871428Y-108157143D01*
X56814286Y-108214286D01*
X56757143Y-108242857D01*
X55758786Y-105510714D02*
X55758786Y-105796429D01*
X55558786Y-105196429D02*
X55758786Y-105510714D01*
X55958786Y-105196429D01*
X56473072Y-105796429D02*
X56130215Y-105796429D01*
X56301643Y-105796429D02*
X56301643Y-105196429D01*
X56244500Y-105282143D01*
X56187358Y-105339286D01*
X56130215Y-105367857D01*
X60941667Y-93016667D02*
X60941667Y-93583333D01*
X60975000Y-93650000D01*
X61008333Y-93683333D01*
X61075000Y-93716667D01*
X61208333Y-93716667D01*
X61275000Y-93683333D01*
X61308333Y-93650000D01*
X61341667Y-93583333D01*
X61341667Y-93016667D01*
X62041666Y-93716667D02*
X61641666Y-93716667D01*
X61841666Y-93716667D02*
X61841666Y-93016667D01*
X61775000Y-93116667D01*
X61708333Y-93183333D01*
X61641666Y-93216667D01*
M02*
